<?xml version="1.0" encoding="UTF-8" standalone="no"?>
<svg width="296px" height="198px" viewBox="0 0 296 198" version="1.1" xmlns="http://www.w3.org/2000/svg" xmlns:xlink="http://www.w3.org/1999/xlink">
    <!-- Generator: Sketch 47.1 (45422) - http://www.bohemiancoding.com/sketch -->
    <title>Group 56 Copy</title>
    <desc>Created with Sketch.</desc>
    <defs></defs>
    <g id="Page-1" stroke="none" stroke-width="1" fill="none" fill-rule="evenodd">
        <g id="Group-56-Copy">
            <path d="M4.19140625,0.953125 L144.028203,0.953125 L144.028203,0.953125 C146.237342,0.953125 148.028203,2.743986 148.028203,4.953125 L148.028203,161.509766 L148.028203,161.509766 C148.028203,163.718905 146.237342,165.509766 144.028203,165.509766 L4.19140625,165.509766 L4.19140625,165.509766 C1.98226725,165.509766 0.19140625,163.718905 0.19140625,161.509766 L0.19140625,4.953125 L0.19140625,4.953125 C0.19140625,2.743986 1.98226725,0.953125 4.19140625,0.953125 Z" id="Rectangle-10-Copy-9" fill="#F2F2F2"></path>
            <path d="M4.5703125,1.96165889 L291.674223,1.96165889 L291.674223,1.96165889 C293.883362,1.96165889 295.674223,3.75251989 295.674223,5.96165889 L295.674223,193.212891 L295.674223,193.212891 C295.674223,195.42203 293.883362,197.212891 291.674223,197.212891 L4.5703125,197.212891 L4.5703125,197.212891 C2.3611735,197.212891 0.5703125,195.42203 0.5703125,193.212891 L0.5703125,5.96165889 L0.5703125,5.96165889 C0.5703125,3.75251989 2.3611735,1.96165889 4.5703125,1.96165889 Z" id="Rectangle-10-Copy-10" fill="#BEBDBE"></path>
            <path d="M4.5703125,0.953125 L143.378906,0.953125 L143.378906,0.953125 C145.588045,0.953125 147.378906,2.743986 147.378906,4.953125 L147.378906,192.741157 L147.378906,192.741157 C147.378906,194.950296 145.588045,196.741157 143.378906,196.741157 L4.5703125,196.741157 L4.5703125,196.741157 C2.3611735,196.741157 0.5703125,194.950296 0.5703125,192.741157 L0.5703125,4.953125 L0.5703125,4.953125 C0.5703125,2.743986 2.3611735,0.953125 4.5703125,0.953125 Z" id="Rectangle-10-Copy-10" fill="#F2F2F2"></path>
            <g id="Group-6-Copy-14" transform="translate(0.570312, 1.953125)" fill="#F23D34">
                <g id="Group-13">
                    <path d="M4,7.4365427e-16 L291.103911,7.4354585e-16 L291.103911,8.8817842e-16 C293.31305,-3.09113629e-14 295.103911,1.790861 295.103911,4 L295.103911,32 L0,32 L0,4 L0,4 C-2.705415e-16,1.790861 1.790861,2.18217371e-15 4,1.77635684e-15 Z" id="Rectangle-10"></path>
                </g>
            </g>
            <text id="列治文" font-family="PingFangSC-Regular, PingFang SC" font-size="14" font-weight="normal" line-spacing="20" fill="#666666">
                <tspan x="53.1914062" y="75.953125">列治文</tspan>
            </text>
            <text id="asdsdsdsds" font-family="PingFangSC-Regular, PingFang SC" font-size="14" font-weight="normal" line-spacing="20" fill="#666666">
                <tspan x="183.593844" y="77.1386719">asdsdsdsds</tspan>
            </text>
            <text id="asdsdsdsds-copy" font-family="PingFangSC-Regular, PingFang SC" font-size="14" font-weight="normal" line-spacing="20" fill="#666666">
                <tspan x="183.593844" y="103.816406">asdsdsdsds</tspan>
            </text>
            <text id="asdsdsdsds-copy-2" font-family="PingFangSC-Regular, PingFang SC" font-size="14" font-weight="normal" line-spacing="20" fill="#666666">
                <tspan x="183.593844" y="130.644531">asdsdsdsds</tspan>
            </text>
            <text id="asdsdsdsds-copy-3" font-family="PingFangSC-Regular, PingFang SC" font-size="14" font-weight="normal" line-spacing="20" fill="#666666">
                <tspan x="183.593844" y="158.966797">asdsdsdsds</tspan>
            </text>
            <text id="asdsdsdsds-copy-4" font-family="PingFangSC-Regular, PingFang SC" font-size="14" font-weight="normal" line-spacing="20" fill="#666666">
                <tspan x="183.593844" y="187.183594">asdsdsdsds</tspan>
            </text>
            <text id="列治文" font-family="PingFangSC-Regular, PingFang SC" font-size="14" font-weight="normal" line-spacing="20" fill="#666666">
                <tspan x="53.1914062" y="104.027344">列治文</tspan>
            </text>
            <text id="列治文" font-family="PingFangSC-Regular, PingFang SC" font-size="14" font-weight="normal" line-spacing="20" fill="#666666">
                <tspan x="53.1914062" y="130.953125">列治文</tspan>
            </text>
            <text id="列治文" font-family="PingFangSC-Regular, PingFang SC" font-size="14" font-weight="normal" line-spacing="20" fill="#666666">
                <tspan x="53.1914062" y="157.953125">列治文</tspan>
            </text>
            <text id="列治文" font-family="PingFangSC-Regular, PingFang SC" font-size="14" font-weight="normal" line-spacing="20" fill="#666666">
                <tspan x="53.1914062" y="186.574219">列治文</tspan>
            </text>
            <text id="城-市" font-family="PingFangSC-Regular, PingFang SC" font-size="14" font-weight="normal" line-spacing="20" fill="#666666">
                <tspan x="57.6914062" y="49.953125">城 市</tspan>
            </text>
            <text id="学-区" font-family="PingFangSC-Regular, PingFang SC" font-size="14" font-weight="normal" line-spacing="20" fill="#666666">
                <tspan x="205.089844" y="49.953125">学 区</tspan>
            </text>
            <g id="Group-6-Copy-13" transform="translate(0.191406, 1.953125)">
                <g id="Group-13">
                    <path d="M4,7.4365427e-16 L143.836797,7.4354585e-16 L143.836797,0 C146.045936,-4.05816873e-16 147.836797,1.790861 147.836797,4 L147.836797,32 L0,32 L0,4 L0,4 C-2.705415e-16,1.790861 1.790861,1.29399529e-15 4,8.8817842e-16 Z" id="Rectangle-10" fill="#F23D34"></path>
                    <text id="城市" font-family="PingFangSC-Semibold, PingFang SC" font-size="14" font-weight="500" letter-spacing="0.357142895" fill="#FFFFFF">
                        <tspan x="59.5612557" y="20">城市</tspan>
                    </text>
                </g>
            </g>
            <path d="M0.742499764,57.2864583 L147.397519,57.2864583" id="Path-5-Copy-40" stroke="#D8D8D8"></path>
            <path d="M148.140937,57.2864583 L294.795956,57.2864583" id="Path-5-Copy-47" stroke="#D8D8D8"></path>
            <path d="M0.742499764,85.2864583 L147.397519,85.2864583" id="Path-5-Copy-44" stroke="#D8D8D8"></path>
            <path d="M148.140937,85.2864583 L294.795956,85.2864583" id="Path-5-Copy-48" stroke="#D8D8D8"></path>
            <path d="M0.742499764,112.286458 L147.397519,112.286458" id="Path-5-Copy-45" stroke="#D8D8D8"></path>
            <path d="M148.140937,112.286458 L294.795956,112.286458" id="Path-5-Copy-49" stroke="#D8D8D8"></path>
            <path d="M0.742499764,139.286458 L147.397519,139.286458" id="Path-5-Copy-46" stroke="#D8D8D8"></path>
            <path d="M0.742499764,167.907552 L147.397519,167.907552" id="Path-5-Copy-51" stroke="#D8D8D8"></path>
            <path d="M148.140937,139.286458 L294.795956,139.286458" id="Path-5-Copy-50" stroke="#D8D8D8"></path>
            <path d="M148.140937,167.907552 L294.795956,167.907552" id="Path-5-Copy-52" stroke="#D8D8D8"></path>
        </g>
    </g>
</svg>