<?xml version="1.0" encoding="UTF-8" standalone="no"?>
<svg width="70px" height="22px" viewBox="0 0 70 22" version="1.1" xmlns="http://www.w3.org/2000/svg" xmlns:xlink="http://www.w3.org/1999/xlink">
    <!-- Generator: Sketch 47.1 (45422) - http://www.bohemiancoding.com/sketch -->
    <title>Rectangle 9</title>
    <desc>Created with Sketch.</desc>
    <defs></defs>
    <g id="Page-1" stroke="none" stroke-width="1" fill="none" fill-rule="evenodd">
        <g id="Map--Copy" transform="translate(-139.000000, -230.000000)" fill="#F0161F">
            <g id="Group-45-Copy-4" transform="translate(139.000000, 230.000000)">
                <g id="Group-30-Copy">
                    <path d="M8,-1.23637645e-13 L61.5,-1.60829466e-14 L61.5,-1.00974196e-28 C65.918278,3.11258181e-15 69.5,3.581722 69.5,8 L69.5,9 L69.5,9 C69.5,13.418278 65.918278,17 61.5,17 L18,17 L14,22 L9.5,17 L8,17 L8,17 C3.581722,17 5.41083001e-16,13.418278 0,9 L0,8 L-1.59872116e-14,8 C-1.65282946e-14,3.581722 3.581722,-1.39520557e-13 8,-1.4033219e-13 Z" id="Rectangle-9"></path>
                </g>
            </g>
        </g>
    </g>
</svg>