<?xml version="1.0" encoding="UTF-8" standalone="no"?>
<svg width="30px" height="29px" viewBox="0 0 30 29" version="1.1" xmlns="http://www.w3.org/2000/svg" xmlns:xlink="http://www.w3.org/1999/xlink">
    <!-- Generator: Sketch 47.1 (45422) - http://www.bohemiancoding.com/sketch -->
    <title>Page 1 Copy</title>
    <desc>Created with Sketch.</desc>
    <defs></defs>
    <g id="Page-1" stroke="none" stroke-width="1" fill="none" fill-rule="evenodd">
        <g id="Map--Copy" transform="translate(-327.000000, -22.000000)" fill="#F23D34">
            <g id="Page-1-Copy" transform="translate(327.000000, 22.000000)">
                <g id="Group-3">
                    <path d="M18.3554118,28.99911 L10.0683529,25.2663427 L10.1883529,16.1364604 L1.19541176,7.06531969 C-0.398117647,5.4579335 -0.398117647,2.83947826 1.19541176,1.23209207 C1.96835294,0.452429668 2.99541176,0.0234373402 4.08952941,0.0234373402 L25.0648235,0.0234373402 C26.1377647,0.0234373402 27.1471765,0.443529412 27.9077647,1.20895141 C28.6683529,1.97615345 29.0865882,2.99434271 29.0865882,4.07839386 C29.0865882,5.16422506 28.6683529,6.18241432 27.9077647,6.94783632 L18.4842353,16.4515294 L18.3554118,28.99911 Z" id="Fill-1"></path>
                </g>
                <polygon id="Fill-4" points="20 19 30 19 30 16 20 16"></polygon>
                <polygon id="Fill-6" points="20 24 30 24 30 21 20 21"></polygon>
                <polygon id="Fill-7" points="20 29 30 29 30 26 20 26"></polygon>
            </g>
        </g>
    </g>
</svg>