<?xml version="1.0" encoding="UTF-8" standalone="no"?>
<svg width="31px" height="30px" viewBox="0 0 31 30" version="1.1" xmlns="http://www.w3.org/2000/svg" xmlns:xlink="http://www.w3.org/1999/xlink">
    <!-- Generator: Sketch 47.1 (45422) - http://www.bohemiancoding.com/sketch -->
    <title>Group 13</title>
    <desc>Created with Sketch.</desc>
    <defs>
        <polygon id="path-1" points="30.0561412 0.0251662404 0.000273529412 0.0251662404 0.000273529412 29.9990793 30.0561412 29.9990793 30.0561412 0.0251662404"></polygon>
        <polygon id="path-3" points="0 30 31 30 31 0 0 0"></polygon>
    </defs>
    <g id="Page-1" stroke="none" stroke-width="1" fill="none" fill-rule="evenodd">
        <g id="Map-Banner" transform="translate(-327.000000, -21.000000)">
            <g id="Group-13" transform="translate(327.000000, 21.000000)">
                <g id="Page-1">
                    <g id="Group-3">
                        <mask id="mask-2" fill="white">
                            <use xlink:href="#path-1"></use>
                        </mask>
                        <g id="Clip-2"></g>
                        <path d="M13.1629647,24.3569309 L16.2757294,25.7601023 L16.3778471,15.8642455 L26.9050824,5.23365729 C27.1731412,4.96296675 27.3208471,4.60204604 27.3208471,4.21902813 C27.3208471,3.83601023 27.1731412,3.47693095 26.9050824,3.20624041 C26.6370235,2.93554987 26.2796118,2.78639386 25.9003176,2.78639386 L4.22584706,2.78639386 C3.82649412,2.78639386 3.45084706,2.9429156 3.17002353,3.22649616 C2.58831765,3.81391304 2.58831765,4.76961637 3.17002353,5.35703325 L13.2778471,15.5640921 L13.1629647,24.3569309 Z M18.9672588,29.9990793 L10.4039647,26.1375959 L10.5279647,16.69289 L1.23525882,7.30895141 C-0.411388235,5.64613811 -0.411388235,2.9373913 1.23525882,1.27457801 C2.03396471,0.468030691 3.09525882,0.0242455243 4.22584706,0.0242455243 L25.9003176,0.0242455243 C27.0090235,0.0242455243 28.0520824,0.458823529 28.8380235,1.25063939 C29.6239647,2.04429668 30.0561412,3.09759591 30.0561412,4.21902813 C30.0561412,5.34230179 29.6239647,6.39560102 28.8380235,7.18741688 L19.1003765,17.0188235 L18.9672588,29.9990793 Z" id="Fill-1" fill="#F23D34" mask="url(#mask-2)"></path>
                    </g>
                    <mask id="mask-4" fill="white">
                        <use xlink:href="#path-3"></use>
                    </mask>
                    <g id="Clip-5"></g>
                    <polygon id="Fill-4" fill="#F23D34" mask="url(#mask-4)" points="20.6666667 19.5652174 31 19.5652174 31 16.9565217 20.6666667 16.9565217"></polygon>
                    <polygon id="Fill-6" fill="#F23D34" mask="url(#mask-4)" points="20.6666667 24.7826087 31 24.7826087 31 22.173913 20.6666667 22.173913"></polygon>
                    <polygon id="Fill-7" fill="#F23D34" mask="url(#mask-4)" points="20.6666667 30 31 30 31 27.3913043 20.6666667 27.3913043"></polygon>
                </g>
            </g>
        </g>
    </g>
</svg>