<?xml version="1.0" encoding="UTF-8" standalone="no"?>
<svg width="21px" height="41px" viewBox="0 0 21 41" version="1.1" xmlns="http://www.w3.org/2000/svg" xmlns:xlink="http://www.w3.org/1999/xlink">
    <!-- Generator: Sketch 47.1 (45422) - http://www.bohemiancoding.com/sketch -->
    <title>Group 13</title>
    <desc>Created with Sketch.</desc>
    <defs>
        <polygon id="path-1" points="1.19748264 7.66881203 10.5 0.700913865 16.2889322 5.03701864 17.3397516 5.82411766 19.8025174 7.66881203 20.965332 8.45301167 20.965332 9.22822145 19.8025174 9.22822145 19.8025174 20.7095969 10.5 20.7095969 10.5 12.7166655 6.23634621 12.7166655 6.23634621 20.7095969 1.19748264 20.7095969 1.19748264 9.22822145 0.0346679688 9.22822145 0.0346679688 8.45301167"></polygon>
    </defs>
    <g id="Page-1" stroke="none" stroke-width="1" fill="none" fill-rule="evenodd">
        <g id="Artboard" transform="translate(-13.000000, -92.000000)">
            <g id="Group-13" transform="translate(13.000000, 92.000000)">
                <g id="Group-6-Copy" transform="translate(0.000000, 27.000000)" font-weight="normal" font-family="PingFangSC-Regular, PingFang SC" letter-spacing="0.3571429" fill="#666666" font-size="10">
                    <g id="Group" transform="translate(0.000000, 0.478200)">
                        <text id="扶뒬못">
                            <tspan x="0.1428571" y="11">扶뒬못</tspan>
                        </text>
                    </g>
                </g>
                <g id="Rectangle-16-Copy-5">
                    <use fill="#F23D34" fill-rule="evenodd" xlink:href="#path-1"></use>
                    <path stroke="#F23D34" stroke-width="1.5" d="M1.61682999,8.29062212 L0.454015322,9.07482176 L0.784667969,8.45301167 L0.784667969,9.22822145 L0.0346679688,8.47822145 L1.94748264,8.47822145 L1.94748264,19.9595969 L5.48634621,19.9595969 L5.48634621,11.9666655 L11.25,11.9666655 L11.25,19.9595969 L19.0525174,19.9595969 L19.0525174,8.47822145 L20.965332,8.47822145 L20.215332,9.22822145 L20.215332,8.45301167 L20.5459847,9.07482176 L19.3528887,8.26909036 L10.5,1.63797917 L1.64711129,8.26909036 L1.61682999,8.29062212 Z"></path>
                </g>
            </g>
        </g>
    </g>
</svg>