<?xml version="1.0" encoding="UTF-8" standalone="no"?>
<svg width="19px" height="40px" viewBox="0 0 19 40" version="1.1" xmlns="http://www.w3.org/2000/svg" xmlns:xlink="http://www.w3.org/1999/xlink">
    <!-- Generator: Sketch 47.1 (45422) - http://www.bohemiancoding.com/sketch -->
    <title>Group 12</title>
    <desc>Created with Sketch.</desc>
    <defs></defs>
    <g id="Page-1" stroke="none" stroke-width="1" fill="none" fill-rule="evenodd">
        <g id="Artboard" transform="translate(-44.000000, -92.000000)">
            <g id="Group-12" transform="translate(42.000000, 93.000000)">
                <path d="M8.41323772,0.310151366 L6.90384627,0.536448606 C6.45236656,0.604449255 6.0621989,0.87199279 5.84593455,1.27330809 C5.13805894,2.58204188 4.0678848,5.95086089 6.83918992,11.9037045 C10.5324055,19.8363704 14.0795868,19.4049564 14.0795868,19.4049564 C14.0795868,19.4049564 15.7093729,19.4885638 16.9534503,17.8097281 C17.3380441,17.2880182 17.267814,16.5578473 16.8464329,16.066236 L14.4742135,13.2949309 C14.1765714,12.9471243 13.7317802,12.7609586 13.2769562,12.792172 L12.4888176,12.8467955 C11.918058,12.8858123 11.3773971,12.583711 11.1098536,12.0753783 L9.35632868,8.73108413 C9.08544085,8.21606282 9.15121197,7.58622075 9.52354339,7.13697056 L10.288272,6.21394537 C10.5513565,5.89512266 10.6661772,5.48043018 10.6037504,5.07131152 L10.0564009,1.5196711 C9.93489157,0.732647199 9.20137638,0.191986305 8.41323772,0.310151366" id="Fill-12" stroke="#F23D34" fill="#F23D34"></path>
                <g id="Group-2-Copy" transform="translate(0.621765, 27.000000)" font-size="10" font-family="PingFangSC-Regular, PingFang SC" letter-spacing="0.3571429" fill="#666666" font-weight="normal">
                    <text id="电话">
                        <tspan x="0.1428571" y="11">电话</tspan>
                    </text>
                </g>
            </g>
        </g>
    </g>
</svg>