<?xml version="1.0" encoding="UTF-8" standalone="no"?>
<svg width="19px" height="39px" viewBox="0 0 19 39" version="1.1" xmlns="http://www.w3.org/2000/svg" xmlns:xlink="http://www.w3.org/1999/xlink">
    <!-- Generator: Sketch 47.1 (45422) - http://www.bohemiancoding.com/sketch -->
    <title>Group 2</title>
    <desc>Created with Sketch.</desc>
    <defs>
        <polygon id="path-1" points="0.681289439 20 13.816478 20 13.816478 0.22481314 0.681289439 0.22481314 0.681289439 20"></polygon>
    </defs>
    <g id="Page-1" stroke="none" stroke-width="1" fill="none" fill-rule="evenodd">
        <g id="Artboard" transform="translate(-44.000000, -13.000000)">
            <g id="Group-2" transform="translate(42.621765, 13.000000)">
                <g id="Group-8" transform="translate(3.500000, 0.000000)">
                    <mask id="mask-2" fill="white">
                        <use xlink:href="#path-1"></use>
                    </mask>
                    <g id="Clip-7"></g>
                    <path d="M4.6646,0.9915 L4.6746,0.9915 L4.6646,0.9915 Z M4.8706,1.7255 C4.8386,1.7255 4.8076,1.7275 4.7766,1.7325 L4.7756,1.7325 L3.3316,1.9485 C3.1326,1.9785 2.9636,2.0955 2.8706,2.2675 C2.3126,3.2995 1.2926,6.2865 3.8406,11.7585 C7.0276,18.6045 9.9806,18.4995 10.0106,18.4985 C10.0406,18.4955 10.0886,18.4965 10.1206,18.4955 C10.1586,18.4935 11.3076,18.5125 12.2246,17.2725 C12.3726,17.0735 12.3426,16.7575 12.1566,16.5395 L9.8886,13.8915 C9.7586,13.7405 9.5726,13.6605 9.3636,13.6715 L8.6116,13.7225 C7.7656,13.7845 6.9726,13.3345 6.5786,12.5885 L4.9016,9.3895 C4.5006,8.6265 4.5976,7.7035 5.1476,7.0385 L5.8796,6.1565 C5.9936,6.0175 6.0446,5.8345 6.0176,5.6555 L5.4946,2.2625 C5.4466,1.9505 5.1766,1.7255 4.8706,1.7255 L4.8706,1.7255 Z M2.48637226,12.3899361 C-0.24662774,6.52093614 0.73137226,3.08293614 1.55637226,1.55493614 C1.87537226,0.963936141 2.44337226,0.565936141 3.11537226,0.464936141 L4.55837226,0.248936141 C5.71537226,0.0709361407 6.80437226,0.874936141 6.98237226,2.03393614 L7.50537226,5.42793614 C7.59737226,6.02893614 7.42837226,6.64193614 7.04037226,7.11193614 L6.30837226,7.99493614 C6.14537226,8.19193614 6.11637226,8.46593614 6.23537226,8.69193614 L7.91237226,11.8889361 C8.02837226,12.1099361 8.25737226,12.2399361 8.51537226,12.2259361 L9.26837226,12.1749361 C9.94437226,12.1369361 10.5973723,12.4069361 11.0333723,12.9159361 L13.3013723,15.5629361 C13.9413723,16.3119361 13.9973723,17.4049361 13.4373723,18.1639361 C12.1583723,19.8919361 10.4813723,19.9939361 10.1173723,19.9939361 C10.0793723,19.9969361 10.0293723,19.9999361 9.96937226,19.9999361 C9.06237226,19.9999361 5.78237226,19.4699361 2.48637226,12.3899361 Z" id="Fill-6" fill="#F23D34" mask="url(#mask-2)"></path>
                </g>
                <text id="电话" font-family="PingFangSC-Regular, PingFang SC" font-size="10" font-weight="normal" letter-spacing="0.3571429" fill="#666666">
                    <tspan x="0.1428571" y="38">电话</tspan>
                </text>
            </g>
        </g>
    </g>
</svg>