<?xml version="1.0" encoding="UTF-8" standalone="no"?>
<svg width="30px" height="30px" viewBox="0 0 30 30" version="1.1" xmlns="http://www.w3.org/2000/svg" xmlns:xlink="http://www.w3.org/1999/xlink">
    <!-- Generator: Sketch 47.1 (45422) - http://www.bohemiancoding.com/sketch -->
    <title>Star</title>
    <desc>Created with Sketch.</desc>
    <defs></defs>
    <g id="Page-1" stroke="none" stroke-width="1" fill="none" fill-rule="evenodd">
        <g id="Artboard" transform="translate(-120.000000, -13.000000)" stroke="#F23D34" stroke-width="2">
            <g id="Star" transform="translate(119.798828, 13.000000)">
                <path d="M14.8872549,23.6973362 L6.48594914,28.114164 L6.48594914,28.114164 C6.44195313,28.1372941 6.38753669,28.1203789 6.36440661,28.0763829 C6.3551961,28.0588634 6.35201778,28.0387963 6.35536369,28.0192881 L7.95987031,18.6642967 L7.95987031,18.6642967 C7.96487773,18.6351012 7.95519836,18.6053112 7.93398661,18.5846349 L1.16504918,11.9865516 L1.16504918,11.9865516 C1.12945566,11.9518565 1.12872735,11.8948763 1.16342246,11.8592828 C1.18036205,11.8419045 1.20360189,11.8321038 1.22787023,11.8321038 L10.5997221,11.8321038 L10.5997221,11.8321038 C10.6359038,11.8321038 10.6685677,11.8104368 10.682638,11.777103 L14.8462196,1.91322609 L14.8462196,1.91322609 C14.8655491,1.86743286 14.9183415,1.84597977 14.9641347,1.86530928 C14.9857397,1.87442883 15.002932,1.89162108 15.0120515,1.91322609 L19.1756331,11.777103 L19.1756331,11.777103 C19.1897034,11.8104368 19.2223674,11.8321038 19.2585491,11.8321038 L28.6304009,11.8321038 L28.6304009,11.8321038 C28.6801065,11.8321038 28.7204009,11.8723982 28.7204009,11.9221038 C28.7204009,11.9463722 28.7106002,11.969612 28.693222,11.9865516 L21.9242845,18.5846349 L21.9242845,18.5846349 C21.9030728,18.6053112 21.8933934,18.6351012 21.8984008,18.6642967 L23.5029074,28.0192881 L23.5029074,28.0192881 C23.5113099,28.0682784 23.478407,28.1148044 23.4294167,28.1232069 C23.4099086,28.1265528 23.3898414,28.1233745 23.372322,28.114164 L14.9710163,23.6973362 L14.9710163,23.6973362 C14.9447971,23.683552 14.913474,23.683552 14.8872549,23.6973362 Z" id="Star-2"></path>
            </g>
        </g>
    </g>
</svg>