<?xml version="1.0" encoding="UTF-8" standalone="no"?>
<svg width="162px" height="22px" viewBox="0 0 162 22" version="1.1" xmlns="http://www.w3.org/2000/svg" xmlns:xlink="http://www.w3.org/1999/xlink">
    <!-- Generator: Sketch 47.1 (45422) - http://www.bohemiancoding.com/sketch -->
    <title>Group</title>
    <desc>Created with Sketch.</desc>
    <defs></defs>
    <g id="Page-1" stroke="none" stroke-width="1" fill="none" fill-rule="evenodd">
        <g id="Head" transform="translate(-139.000000, -21.000000)">
            <g id="Group-2">
                <g id="Group" transform="translate(139.000000, 21.000000)">
                    <rect id="Search-Bar" fill="#E2DFDF" x="0" y="0" width="162" height="22" rx="5"></rect>
                    <g id="Float-Copy" transform="translate(13.000000, 2.500000)" fill="#8E8E93">
                        <path d="M8.99724818,10.0041466 C9.07736566,10.0405938 9.15227305,10.0916129 9.21775156,10.1570914 L12.649991,13.5893308 C12.9448449,13.8841847 12.9484764,14.358606 12.6535412,14.6535412 C12.360648,14.9464344 11.8812716,14.9419317 11.5893308,14.649991 L8.15709139,11.2177516 C8.09136995,11.1520301 8.04011707,11.0773874 8.00341407,10.9977995 C7.16716939,11.6270411 6.1271393,12 5,12 C2.23857625,12 0,9.76142375 0,7 C0,4.23857625 2.23857625,2 5,2 C7.76142375,2 10,4.23857625 10,7 C10,8.12746846 9.62682325,9.16777681 8.99724818,10.0041466 Z M5,11 C7.209139,11 9,9.209139 9,7 C9,4.790861 7.209139,3 5,3 C2.790861,3 1,4.790861 1,7 C1,9.209139 2.790861,11 5,11 Z" id="Search-Icon"></path>
                        <text id="MLS编号，地址，城市" font-family="PingFangSC-Regular, PingFang SC" font-size="12" font-weight="normal" letter-spacing="-0.150000006">
                            <tspan x="24" y="13">MLS编号，地址，城市</tspan>
                        </text>
                    </g>
                </g>
            </g>
        </g>
    </g>
</svg>