<?xml version="1.0" encoding="UTF-8" standalone="no"?>
<svg width="30px" height="30px" viewBox="0 0 30 30" version="1.1" xmlns="http://www.w3.org/2000/svg" xmlns:xlink="http://www.w3.org/1999/xlink">
    <!-- Generator: Sketch 47.1 (45422) - http://www.bohemiancoding.com/sketch -->
    <title>Star Copy</title>
    <desc>Created with Sketch.</desc>
    <defs></defs>
    <g id="Page-1" stroke="none" stroke-width="1" fill="none" fill-rule="evenodd">
        <g id="Star-Copy" fill="#F23D34">
            <path d="M22.356,23.743 L8.547,15.948 C8.59,15.745 8.614,15.534 8.614,15.317 C8.614,15.101 8.59,14.89 8.547,14.686 L22.356,6.891 C22.9,7.399 23.624,7.715 24.426,7.715 C26.105,7.715 27.467,6.354 27.467,4.675 C27.467,2.996 26.105,1.634 24.426,1.634 C22.747,1.634 21.385,2.996 21.385,4.675 C21.385,4.892 21.41,5.102 21.453,5.306 L7.644,13.101 C7.101,12.593 6.376,12.276 5.574,12.276 C3.895,12.276 2.533,13.638 2.533,15.317 C2.533,16.997 3.895,18.358 5.574,18.358 C6.376,18.358 7.101,18.041 7.644,17.533 L21.453,25.328 C21.41,25.532 21.385,25.743 21.385,25.96 C21.385,27.639 22.747,29 24.426,29 C26.105,29 27.467,27.639 27.467,25.96 C27.467,24.28 26.105,22.919 24.426,22.919 C23.624,22.919 22.9,23.235 22.356,23.743 Z" id="Fill-1"></path>
        </g>
    </g>
</svg>