<svg xmlns="http://www.w3.org/2000/svg" viewBox="0 0 28.53 27.76"><defs><style>.cls-1{fill:#f23d34;}.cls-2{fill:#fb9397;fill-rule:evenodd;}</style></defs><title>Asset 8</title><g id="Layer_2" data-name="Layer 2"><g id="Layer_1-2" data-name="Layer 1"><path class="cls-1" d="M26.54,9.19,14.27,0,2,9.17,0,10.53v1.23H1.43v16H27.11v-16h1.42V10.53Zm-.86,1.12v16H2.85v-16h0L14.27,1.78l11.41,8.55Z"/><path class="cls-2" d="M16.16,18.11c0-.5-.25-.81-1-1.1v2C15.81,19,16.16,18.63,16.16,18.11Zm-2.4-3.63v-2c-.7.1-1,.45-1,.92S13,14.19,13.76,14.48ZM18.29,18c0,1.62-1.24,2.68-3.09,2.88v1.45H13.68V20.85a7.39,7.39,0,0,1-3.43-1.39l1.13-1.66A5.84,5.84,0,0,0,13.76,19V16.66c-2.1-.57-3.14-1.38-3.14-3.1s1.23-2.68,3.06-2.87V9.84H15.2v.88a6,6,0,0,1,2.71,1.08l-1,1.7a6.05,6.05,0,0,0-1.8-.86v2.2C17.34,15.44,18.29,16.36,18.29,18Z"/></g></g></svg>