<svg xmlns="http://www.w3.org/2000/svg" viewBox="0 0 69.5 22"><defs><style>.cls-1{fill:#9b9b9b;}.cls-1,.cls-3{fill-rule:evenodd;}.cls-2,.cls-3{fill:#fff;}</style></defs><title>Asset 2</title><g id="Layer_2" data-name="Layer 2"><g id="Layer_1-2" data-name="Layer 1"><path class="cls-1" d="M8,0H61.5a8,8,0,0,1,8,8V9a8,8,0,0,1-8,8H18l-4,5L9.5,17H8A8,8,0,0,1,0,9V8A8,8,0,0,1,8,0Z"/><path class="cls-2" d="M65.27,6.06h0l-4.61-4L56.13,6h0a1.63,1.63,0,0,0-.82,1.4v3.71A1.65,1.65,0,0,0,57,12.77h7.42A1.65,1.65,0,0,0,66,11.13V7.42A1.64,1.64,0,0,0,65.27,6.06Zm-4.6-2.93,3.08,2.66H57.59Zm4.55,8a.85.85,0,0,1-.85.85H57a.85.85,0,0,1-.85-.85V7.42A.84.84,0,0,1,57,6.57h7.42a.83.83,0,0,1,.44.12.85.85,0,0,1,.41.73Z"/><path class="cls-3" d="M57.53,10.35a1,1,0,0,1-1.09-1.06h0a1.09,1.09,0,0,1,2.18,0h0A1.06,1.06,0,0,1,57.53,10.35Zm.62-1.06a.63.63,0,0,0-.62-.65.62.62,0,0,0-.62.64h0a.62.62,0,0,0,.62.64.61.61,0,0,0,.62-.64Z"/><path class="cls-3" d="M59.82,9.7h-.34v.62H59V8.26h.84a.7.7,0,0,1,.78.71h0A.74.74,0,0,1,59.82,9.7ZM60.19,9c0-.2-.14-.31-.36-.31h-.35V9.3h.36A.32.32,0,0,0,60.19,9Z"/><polygon class="cls-3" points="60.99 10.32 60.99 8.26 62.54 8.26 62.54 8.66 61.44 8.66 61.44 9.08 62.41 9.08 62.41 9.48 61.44 9.48 61.44 9.91 62.55 9.91 62.55 10.32 60.99 10.32"/><polygon class="cls-3" points="64.4 10.32 63.4 9.01 63.4 10.32 62.96 10.32 62.96 8.26 63.37 8.26 64.33 9.53 64.33 8.26 64.78 8.26 64.78 10.32 64.4 10.32"/></g></g></svg>