<svg xmlns="http://www.w3.org/2000/svg" viewBox="0 0 46 46"><defs><style>.cls-1{fill:#f23d34;}.cls-2{fill:#fff;}</style></defs><title>Asset 32</title><g id="Layer_2" data-name="Layer 2"><g id="Layer_1-2" data-name="Layer 1"><circle class="cls-1" cx="23" cy="23" r="23"/><path class="cls-2" d="M18.21,39a6.43,6.43,0,0,1-1.56-.18,2.19,2.19,0,0,1-1-.73.55.55,0,0,0-.39-.25c-.24,0-.64.45-1.21,1.37l-.54-.48a3.79,3.79,0,0,1,1.44-1.53v-3H13.43v-.66h2.14v3.73a1.7,1.7,0,0,1,.24.23,2.33,2.33,0,0,0,.77.63,3.71,3.71,0,0,0,1.35.24l1.95,0,1.44,0c.48,0,.86,0,1.12,0l-.17.72H20Zm-2.32-7.24-.51.5a10.94,10.94,0,0,0-1.72-1.59l.49-.47A12.39,12.39,0,0,1,15.89,31.79Zm2-.61a6.36,6.36,0,0,0-.54-.87l.67-.25a6.18,6.18,0,0,1,.61,1.12H19.8A7.94,7.94,0,0,0,20.44,30l.7.24a5.51,5.51,0,0,1-.55.9h1.7v.67h-2.8a7,7,0,0,1-.26.81h2.38v4.81H16.87V32.66h1.6a5,5,0,0,0,.25-.81h-2.5v-.67Zm3.05,2.91V33.3H17.55v.79Zm0,1.33v-.75H17.55v.75Zm0,.58H17.55v.83h3.38Zm5.95-5.53v3.14h-1v1.6h1v.68h-1v1.86c.44-.14.87-.28,1.27-.43V38a30.7,30.7,0,0,1-3.65,1.08l-.2-.7.53-.12V34.68h.64v3.46l.74-.19V33.61H23.8V30.47Zm-.69.66H24.5V33h1.69Zm3.27-.95c-.08.25-.17.49-.27.73h2.48v.52a6.53,6.53,0,0,1-1.49,2.22,7.05,7.05,0,0,0,2.39,1.25l-.41.58a6.8,6.8,0,0,1-2.49-1.37,10.07,10.07,0,0,1-2.42,1.41L26.82,35a9.5,9.5,0,0,0,2.36-1.33,6.27,6.27,0,0,1-.91-1.27,6.86,6.86,0,0,1-.87.83L27,32.61a5.16,5.16,0,0,0,1.8-2.56Zm2.19,9H31v-.44H28.44v.44h-.69V35.49h3.9ZM31,38.1v-2H28.44v2Zm-1.28-4.91a6.41,6.41,0,0,0,1.23-1.64H28.85l-.17.25A5.6,5.6,0,0,0,29.68,33.19Z"/><path class="cls-2" d="M29.23,11,29,12,29,12l.4.51v0l0,.05-3.15,3.15,4.1,4.1a8.05,8.05,0,0,1-1.5,2.46l-11.1-11.1a7.64,7.64,0,0,1,1.66-1.14l.17-.09.14-1-.3.13A8.72,8.72,0,1,0,29.23,11Zm-1.77,4.79,2.45-2.44a7.82,7.82,0,0,1,.95,3.75A8.1,8.1,0,0,1,30.64,19Zm.78,7.16a7.51,7.51,0,0,1-.83.66L16.49,12.68a10.46,10.46,0,0,1,.65-.84ZM15.4,15.08l3.37,3.37L16.19,21a7.89,7.89,0,0,1-.79-5.94Zm1.27,6.68L20,18.45,15.7,14.16a7.79,7.79,0,0,1,.34-.72L26.65,24.05a7.79,7.79,0,0,1-.72.34l-4.28-4.28-3.31,3.31A8,8,0,0,1,16.67,21.76Zm2.4,2.14,2.58-2.58L25,24.69A7.94,7.94,0,0,1,23,25,7.83,7.83,0,0,1,19.07,23.9Z"/><path class="cls-2" d="M24.27,13a2.08,2.08,0,1,0-2.08-2.07A2.07,2.07,0,0,0,24.27,13Zm0-3.34A1.27,1.27,0,1,1,23,10.9,1.27,1.27,0,0,1,24.27,9.63Z"/><path class="cls-2" d="M24.15,16.6l.12.11.11-.11,2.79-2.79a4.14,4.14,0,0,0,0-5.83,4.12,4.12,0,0,0-5.81,0,4.14,4.14,0,0,0,0,5.83Zm-2.22-8a3.3,3.3,0,0,1,4.67,0,3.31,3.31,0,0,1,0,4.68s-.45.44-1,1l-1.37,1.37L22.68,14l-.75-.74A3.31,3.31,0,0,1,21.93,8.56Z"/></g></g></svg>