<svg xmlns="http://www.w3.org/2000/svg" viewBox="0 0 25.28 24.28"><defs><style>.cls-1{fill:#f23d34;}</style></defs><title>Asset 26</title><g id="Layer_2" data-name="Layer 2"><g id="Layer_1-2" data-name="Layer 1"><path class="cls-1" d="M15.51,24.28l-7-3.13.1-7.65L1,5.9A3.46,3.46,0,0,1,3.46,0H21.18a3.38,3.38,0,0,1,3.4,3.4,3.36,3.36,0,0,1-1,2.4l-8,8Zm-4.74-4.57,2.54,1.13.09-8L22,4.22a1.16,1.16,0,0,0,0-1.64,1.17,1.17,0,0,0-.83-.34H3.46a1.22,1.22,0,0,0-.87.35,1.24,1.24,0,0,0,0,1.73l8.27,8.27Z"/><rect class="cls-1" x="16.71" y="13.71" width="8.58" height="2.24"/><rect class="cls-1" x="16.71" y="17.76" width="8.58" height="2.24"/><rect class="cls-1" x="16.71" y="21.82" width="8.58" height="2.24"/></g></g></svg>