<svg xmlns="http://www.w3.org/2000/svg" viewBox="0 0 46 46"><defs><style>.cls-1{fill:#f23d34;}.cls-2,.cls-3{fill:#fff;}.cls-3{fill-rule:evenodd;}</style></defs><title>Asset 36</title><g id="Layer_2" data-name="Layer 2"><g id="Layer_1-2" data-name="Layer 1"><circle class="cls-1" cx="23" cy="23" r="23"/><path class="cls-2" d="M18.6,30.43v.69H16a11.05,11.05,0,0,1-.28,1.37h2.37v.64a7.64,7.64,0,0,1-4.06,5.93l-.35-.64A6.58,6.58,0,0,0,16.36,36a11.1,11.1,0,0,0-1.75-1.17,6.61,6.61,0,0,1-.75.83L13.52,35a6.25,6.25,0,0,0,1.79-3.86H13.76v-.69Zm-1.91,5a8.91,8.91,0,0,0,.74-2.22H15.51a8,8,0,0,1-.54,1.1A13.12,13.12,0,0,1,16.69,35.39ZM20,30.82v6.32h-.7V30.82Zm-.23,8.25-.16-.69c.44,0,.87,0,1.27,0s.55-.2.55-.59V30.07h.72V38a.92.92,0,0,1-1,1.06Zm7.86-8.21V30h.73v.84H32v.66H28.4v.95h3v.66h-3v.95h3.94v.65H28.7a7.51,7.51,0,0,0,1,1.71,5.35,5.35,0,0,0,1.62-1.21l.5.48a5.59,5.59,0,0,1-1.72,1.19,6.29,6.29,0,0,0,2.39,1.58l-.38.63A7.25,7.25,0,0,1,28,34.73H27.7a6.28,6.28,0,0,1-1.35,1.38v2.13a22.57,22.57,0,0,0,2.22-.79l.14.67a22.24,22.24,0,0,1-3.15,1l-.24-.62c.21-.08.32-.2.32-.36V36.59a11.87,11.87,0,0,1-1.82.9l-.38-.62a7.92,7.92,0,0,0,3.5-2.14H23.73v-.65h3.94v-.95h-3v-.66h3v-.95H24.08v-.66Z"/><path class="cls-3" d="M14.87,24.37V8.1a1.71,1.71,0,0,1,1.78-1.63h12.7A1.71,1.71,0,0,1,31.13,8.1V24.37A1.71,1.71,0,0,1,29.35,26H16.65A1.71,1.71,0,0,1,14.87,24.37ZM29.48,8.56A.47.47,0,0,0,29,8.11H17a.47.47,0,0,0-.49.45V23.91a.47.47,0,0,0,.49.45H29a.47.47,0,0,0,.49-.45Z"/><rect class="cls-2" x="17.74" y="11.42" width="1.75" height="1.61"/><rect class="cls-2" x="17.74" y="15.43" width="1.75" height="1.61"/><rect class="cls-2" x="17.74" y="19.45" width="1.75" height="1.61"/><rect class="cls-2" x="21.25" y="11.42" width="7.01" height="1.61"/><rect class="cls-2" x="21.25" y="15.43" width="7.01" height="1.61"/><rect class="cls-2" x="21.25" y="19.45" width="7.01" height="1.61"/></g></g></svg>