<svg xmlns="http://www.w3.org/2000/svg" viewBox="0 0 29.58 28.31"><defs><style>.cls-1{fill:#f23d34;}</style></defs><title>Asset 24</title><g id="Layer_2" data-name="Layer 2"><g id="Layer_1-2" data-name="Layer 1"><path class="cls-1" d="M14.75,22.84l-8.4,4.41a.1.1,0,0,1-.13,0s0,0,0-.06l1.6-9.36a.06.06,0,0,0,0-.07L1,11.13A.09.09,0,0,1,1,11a.09.09,0,0,1,.07,0h9.37a.08.08,0,0,0,.08-.05l4.17-9.87a.08.08,0,0,1,.11,0s0,0,0,0L19,10.92a.08.08,0,0,0,.08.05h9.37a.09.09,0,0,1,.09.09.09.09,0,0,1,0,.07l-6.77,6.6a.07.07,0,0,0,0,.07l1.6,9.36a.08.08,0,0,1-.07.1.07.07,0,0,1-.06,0l-8.4-4.41A.06.06,0,0,0,14.75,22.84Z"/><path class="cls-1" d="M23.12,28.31l-.35-.17-8-4.19-8,4.19a1.09,1.09,0,0,1-1.47-.46l-.16-.3L5.23,27l1.52-8.88L.33,11.84a1.09,1.09,0,0,1,0-1.54L.6,10l.49,0H9.86L13.79.66A1.1,1.1,0,0,1,15.21.08l.37.16.21.42L19.72,10h8.77a1.09,1.09,0,0,1,1.09,1.09v.43l-.33.35-6.42,6.27,1.59,9.29-.5.74ZM3.33,12l5.54,5.4-.06.6-1.3,7.54,7.24-3.8.54.24,6.78,3.56-1.38-8,.39-.44,5.17-5H18.46l-.34-.66L14.79,3.43l-3.58,8.49-.75.05Z"/></g></g></svg>