<svg xmlns="http://www.w3.org/2000/svg" viewBox="0 0 13.13 19.78"><defs><style>.cls-1{fill:#f23d34;}</style></defs><title>Asset 16</title><g id="Layer_2" data-name="Layer 2"><g id="Layer_1-2" data-name="Layer 1"><path class="cls-1" d="M9.28,19.78c-.91,0-4.18-.54-7.48-7.61C-.93,6.3,0,2.86.87,1.33A2.12,2.12,0,0,1,2.43.24L3.87,0A2.15,2.15,0,0,1,6.3,1.81L6.82,5.2a2.16,2.16,0,0,1-.47,1.69l-.73.88a.64.64,0,0,0-.07.7l1.68,3.19a.6.6,0,0,0,.6.34L8.58,12a2.16,2.16,0,0,1,1.77.74l2.26,2.65a2.11,2.11,0,0,1,.14,2.6,4.25,4.25,0,0,1-3.32,1.83ZM4.19,1.5h-.1l-1.44.21A.62.62,0,0,0,2.19,2c-.56,1-1.58,4,1,9.49,3.19,6.85,6.14,6.74,6.17,6.74h.11a2.71,2.71,0,0,0,2.1-1.22.62.62,0,0,0-.06-.74L9.21,13.67a.65.65,0,0,0-.53-.22l-.75.05a2.11,2.11,0,0,1-2-1.14L4.22,9.16a2.13,2.13,0,0,1,.25-2.35l.73-.88a.69.69,0,0,0,.14-.5L4.81,2A.63.63,0,0,0,4.19,1.5ZM4,.77H4Z"/></g></g></svg>