<svg xmlns="http://www.w3.org/2000/svg" viewBox="0 0 20.59 19.66"><defs><style>.cls-1{fill:#f23d34;}</style></defs><title>Asset 21</title><g id="Layer_2" data-name="Layer 2"><g id="Layer_1-2" data-name="Layer 1"><path class="cls-1" d="M16.2,19.66a.76.76,0,0,1-.45-.15l-5.45-4-5.46,4a.72.72,0,0,1-.88,0,.74.74,0,0,1-.28-.83l2.09-6.42-5.46-4A.76.76,0,0,1,0,7.45a.74.74,0,0,1,.71-.51H7.5L9.58.52A.75.75,0,0,1,11,.52l2.08,6.42h6.75a.75.75,0,0,1,.72.51.74.74,0,0,1-.28.84l-5.46,4,2.09,6.42a.75.75,0,0,1-.27.83A.73.73,0,0,1,16.2,19.66Z"/></g></g></svg>