<svg xmlns="http://www.w3.org/2000/svg" viewBox="0 0 46.5 46.5"><defs><style>.cls-1{fill:#fff;}.cls-2{fill:#d8d8d8;}.cls-3{fill:#f23d34;}</style></defs><title>Asset 30</title><g id="Layer_2" data-name="Layer 2"><g id="Layer_1-2" data-name="Layer 1"><circle class="cls-1" cx="23.25" cy="23.25" r="23"/><path class="cls-2" d="M23.25,46.5A23.25,23.25,0,1,1,46.5,23.25,23.28,23.28,0,0,1,23.25,46.5Zm0-46A22.75,22.75,0,1,0,46,23.25,22.78,22.78,0,0,0,23.25.5Z"/><path class="cls-3" d="M23.33,26.17c-3.84,0-7.82-1.35-7.82-3.6,0-.69.39-1.68,2.2-2.47a.79.79,0,0,1,1,.4.78.78,0,0,1-.41,1c-.87.38-1.26.8-1.26,1,0,.7,2.44,2,6.25,2s6.09-1.32,6.09-2c0-.24-.38-.65-1.23-1a.78.78,0,1,1,.64-1.43c1.78.78,2.16,1.76,2.16,2.45C31,24.82,27.1,26.17,23.33,26.17Z"/><path class="cls-3" d="M23.24,23.94l-4.82-4.52A7.47,7.47,0,0,1,16.21,14a6.9,6.9,0,0,1,2.13-5,7.11,7.11,0,0,1,9.79,0,6.9,6.9,0,0,1,2.13,5,7.49,7.49,0,0,1-2.19,5.38Zm0-15.32a5.61,5.61,0,0,0-3.87,1.54A5.4,5.4,0,0,0,17.71,14a6,6,0,0,0,1.76,4.31l3.77,3.54L27,18.33A6,6,0,0,0,28.76,14a5.37,5.37,0,0,0-1.66-3.88h0A5.57,5.57,0,0,0,23.24,8.62Zm0,9.49a3.91,3.91,0,1,1,3.92-3.91A3.91,3.91,0,0,1,23.21,18.11Zm0-6.32a2.41,2.41,0,1,0,2.42,2.41A2.41,2.41,0,0,0,23.21,11.79Z"/><path class="cls-3" d="M16.07,30.66a7.76,7.76,0,0,1-2.21,3L13.65,33a6.71,6.71,0,0,0,1.8-2.6Zm.22,2.59a7.56,7.56,0,0,1-.83,1.53v4.81h-.65v-4a8.47,8.47,0,0,1-.86.83l-.21-.66a7.44,7.44,0,0,0,2-2.77Zm1.52,2.65v-1h.69v1H20v.64H18.5V38c.59-.1,1.17-.22,1.74-.34v.64c-1.24.3-2.57.54-4,.74l-.17-.69c.59-.06,1.17-.14,1.74-.23V36.54H16.4V35.9Zm0-4V30.58h.69V31.9H19.9v.64H18.51v1.35h1.6v-.43h2.83v.66H22v4.51c0,.62-.27.93-.8.93H20l-.15-.67c.38,0,.75,0,1.1,0s.33-.16.33-.48V34.12H20.15v.41H16.26v-.64h1.56V32.54H16.46V31.9Zm4.94-.77v.65H20.28v-.65Zm4,7a7.73,7.73,0,0,1-2.55,1.4l-.4-.59a7.18,7.18,0,0,0,2.5-1.27Zm4.88-7.36v2.85h-3.1c.09.18.17.38.25.58h3.95v.6h-8.8v-.6H28a6.29,6.29,0,0,0-.32-.58H25V30.74Zm-.1,4.57v2H28.79v1.42c0,.55-.26.83-.77.83H26.83l-.15-.67c.38,0,.75.05,1.1.05.2,0,.3-.13.3-.38V37.33H25.2v-2Zm-.6-3.42v-.58H25.73v.58Zm0,.53H25.73V33h5.19Zm-.1,3.46H25.9v.88h4.92Zm2,3-.25.66a13.37,13.37,0,0,0-2.83-1.24l.3-.57A12.19,12.19,0,0,1,32.85,38.84Z"/></g></g></svg>