<svg xmlns="http://www.w3.org/2000/svg" viewBox="0 0 20.59 19.66"><defs><style>.cls-1{fill:#f23d34;}</style></defs><title>Asset 17</title><g id="Layer_2" data-name="Layer 2"><g id="Layer_1-2" data-name="Layer 1"><path class="cls-1" d="M20.56,7.45a.75.75,0,0,0-.72-.51H13.09L11,.52a.75.75,0,0,0-1.43,0L7.5,6.94H.75A.74.74,0,0,0,0,7.45a.76.76,0,0,0,.27.84l5.46,4L3.68,18.68a.74.74,0,0,0,.28.83.72.72,0,0,0,.88,0l5.46-4,5.45,4a.76.76,0,0,0,.45.15.73.73,0,0,0,.44-.15.75.75,0,0,0,.27-.83l-2.09-6.42,5.46-4A.74.74,0,0,0,20.56,7.45ZM13.5,11.37a.74.74,0,0,0-.27.83l1.54,4.74-4-2.93a.79.79,0,0,0-.44-.14.82.82,0,0,0-.45.14l-4,2.93L7.36,12.2a.74.74,0,0,0-.27-.83l-4-2.93H8a.75.75,0,0,0,.72-.52L10.3,3.18l1.54,4.74a.74.74,0,0,0,.71.52h5Z"/></g></g></svg>