<svg xmlns="http://www.w3.org/2000/svg" viewBox="0 0 46.5 46.5"><defs><style>.cls-1{fill:#fff;}.cls-2{fill:#d8d8d8;}.cls-3{fill:#f23d34;}</style></defs><title>Asset 29</title><g id="Layer_2" data-name="Layer 2"><g id="Layer_1-2" data-name="Layer 1"><circle class="cls-1" cx="23.25" cy="23.25" r="23"/><path class="cls-2" d="M23.25,46.5A23.25,23.25,0,1,1,46.5,23.25,23.28,23.28,0,0,1,23.25,46.5Zm0-46A22.75,22.75,0,1,0,46,23.25,22.78,22.78,0,0,0,23.25.5Z"/><path class="cls-3" d="M26.64,13.24a1.84,1.84,0,0,0,.66.12,2,2,0,1,0-1.85-1.23H22.59L18.44,8l-.53.62c-.05.06-4.91,5.92.4,11.44l-3.15,2.49a.75.75,0,0,0-.29.59v2.36a.76.76,0,0,0,.75.75h7.85a.76.76,0,0,0,.75-.75V22.84h.11a10,10,0,0,0,5.75-2.08l.62-.53-4.06-4.06Zm.66-2.77a.89.89,0,1,1-.89.89A.89.89,0,0,1,27.3,10.47Zm-2.16,3.16v1l-1-1Zm-2.43,9.15v1.95H16.38V23.48l3-2.39a9,9,0,0,0,1,.66,7.41,7.41,0,0,0,1.13.56C22,22.51,22.42,22.67,22.71,22.78Zm5.73-2.68a6.94,6.94,0,0,1-6.52.72c-.18-.08-.37-.17-.55-.27a8.34,8.34,0,0,1-1.85-1.41,6.73,6.73,0,0,1-.94-8.89l1.88,1.88h0l6.19,6.17h0Z"/><path class="cls-3" d="M28.19,7.08a.61.61,0,1,0-.34,1.17,3.13,3.13,0,0,1,2.56,2.52.61.61,0,0,0,.61.5h.1a.62.62,0,0,0,.5-.71A4.33,4.33,0,0,0,28.19,7.08Z"/><path class="cls-3" d="M14.64,31.66V31h6.81v4.67c0,1-.41,1.52-1.22,1.52H19.12l-.2-.68,1.15,0c.44,0,.66-.37.66-1.09V31.66H17.9v6.92h4.53v.69H13.86v-.69h3.35V31.66Zm9.66,6-.48-.56a7.72,7.72,0,0,0,1.43-2.68l.65.15c-.08.26-.17.5-.26.74h2.5v-.79h.73v.79h3.32V36H28.87v1h2.95v.62H28.87v1h3.77v.66H24.16v-.66h4v-1H25.36V37h2.78V36H25.36A8.41,8.41,0,0,1,24.3,37.69Zm7.26-7v3.54h-6.5V30.69Zm-.71,1.48v-.86H25.77v.86Zm0,.58H25.77v.87h5.08Z"/></g></g></svg>