<svg xmlns="http://www.w3.org/2000/svg" viewBox="0 0 46 46"><defs><style>.cls-1{fill:#f23d34;}.cls-2{fill:#fff;}</style></defs><title>Asset 34</title><g id="Layer_2" data-name="Layer 2"><g id="Layer_1-2" data-name="Layer 1"><circle class="cls-1" cx="23" cy="23" r="23"/><path class="cls-2" d="M23.08,25.92c-3.84,0-7.82-1.35-7.82-3.6,0-.69.39-1.68,2.2-2.47a.79.79,0,0,1,1,.4.78.78,0,0,1-.41,1c-.87.38-1.26.8-1.26,1,0,.7,2.44,2,6.25,2s6.09-1.32,6.09-2c0-.24-.38-.65-1.23-1a.78.78,0,1,1,.64-1.43c1.78.78,2.16,1.76,2.16,2.45C30.74,24.57,26.85,25.92,23.08,25.92Z"/><path class="cls-2" d="M23,23.69l-4.82-4.52A7.51,7.51,0,0,1,16,13.78a6.9,6.9,0,0,1,2.13-5,7.11,7.11,0,0,1,9.79,0,6.9,6.9,0,0,1,2.13,5,7.49,7.49,0,0,1-2.19,5.38ZM23,8.37a5.61,5.61,0,0,0-3.87,1.54,5.4,5.4,0,0,0-1.66,3.88,6,6,0,0,0,1.76,4.31L23,21.64l3.78-3.56a6,6,0,0,0,1.74-4.29,5.33,5.33,0,0,0-1.66-3.88h0A5.57,5.57,0,0,0,23,8.37Zm0,9.5A3.92,3.92,0,1,1,26.88,14,3.92,3.92,0,0,1,23,17.87Zm0-6.33A2.42,2.42,0,1,0,25.38,14,2.41,2.41,0,0,0,23,11.54Z"/><path class="cls-2" d="M15.82,30.41a7.76,7.76,0,0,1-2.21,3l-.21-.68a6.71,6.71,0,0,0,1.8-2.6ZM16,33a7.56,7.56,0,0,1-.83,1.53v4.81h-.65v-4a8.47,8.47,0,0,1-.86.83l-.21-.66a7.44,7.44,0,0,0,2-2.77Zm1.52,2.65v-1h.69v1H19.7v.64H18.25V37.7c.59-.1,1.17-.22,1.74-.34V38c-1.24.3-2.57.54-4,.74l-.17-.69c.59-.06,1.17-.14,1.74-.23V36.29H16.15v-.64Zm0-4V30.33h.69v1.32h1.39v.64H18.26v1.35h1.6v-.43h2.83v.66h-1v4.51c0,.62-.27.93-.8.93H19.76l-.15-.67c.38,0,.75,0,1.1,0s.33-.16.33-.48V33.87H19.9v.41H16v-.64h1.56V32.29H16.21v-.64Zm4.94-.77v.65H20v-.65Zm4,7a7.73,7.73,0,0,1-2.55,1.4l-.4-.59A7.18,7.18,0,0,0,26,37.39Zm4.88-7.36v2.85h-3.1c.09.18.17.38.25.58h3.95v.6h-8.8v-.6h4.1a6.29,6.29,0,0,0-.32-.58H24.78V30.49Zm-.1,4.57v2H28.54V38.5c0,.55-.26.83-.77.83H26.58l-.15-.67c.38,0,.75.05,1.1.05.2,0,.3-.13.3-.38V37.08H25v-2Zm-.6-3.42v-.58H25.48v.58Zm0,.53H25.48v.6h5.19Zm-.1,3.46H25.65v.88h4.92Zm2,3-.25.66A13.37,13.37,0,0,0,29.52,38l.3-.57A12.19,12.19,0,0,1,32.6,38.59Z"/></g></g></svg>