<svg xmlns="http://www.w3.org/2000/svg" viewBox="0 0 23.5 27.5"><defs><style>.cls-1{fill:#fb9397;}.cls-2{fill:#f23d34;}</style></defs><title>Asset 10</title><g id="Layer_2" data-name="Layer 2"><g id="Layer_1-2" data-name="Layer 1"><rect class="cls-1" x="3.25" y="4.75" width="2" height="2"/><rect class="cls-1" x="3.25" y="8.75" width="2" height="2"/><rect class="cls-1" x="3.25" y="12.75" width="2" height="2"/><rect class="cls-1" x="3.25" y="16.75" width="2" height="2"/><rect class="cls-1" x="3.25" y="20.75" width="2" height="2"/><rect class="cls-1" x="7.25" y="4.75" width="2" height="2"/><rect class="cls-1" x="7.25" y="8.75" width="2" height="2"/><rect class="cls-1" x="7.25" y="12.75" width="2" height="2"/><rect class="cls-1" x="7.25" y="16.75" width="2" height="2"/><rect class="cls-1" x="7.25" y="20.75" width="2" height="2"/><path class="cls-2" d="M12.5,5V0H0V27.5H23.5V5ZM11,26H1.5V1.5H11V26Zm11,0H12.5V6.5H22Z"/><rect class="cls-1" x="14.25" y="8.75" width="2" height="2"/><rect class="cls-1" x="14.25" y="12.75" width="2" height="2"/><rect class="cls-1" x="14.25" y="16.75" width="2" height="2"/><rect class="cls-1" x="14.25" y="20.75" width="2" height="2"/><rect class="cls-1" x="18.25" y="8.75" width="2" height="2"/><rect class="cls-1" x="18.25" y="12.75" width="2" height="2"/><rect class="cls-1" x="18.25" y="16.75" width="2" height="2"/><rect class="cls-1" x="18.25" y="20.75" width="2" height="2"/></g></g></svg>