<svg xmlns="http://www.w3.org/2000/svg" viewBox="0 0 26.14 22.62"><defs><style>.cls-1{fill:#f23d34;}.cls-2{fill:#fb9397;}</style></defs><title>Asset 11</title><g id="Layer_2" data-name="Layer 2"><g id="Layer_1-2" data-name="Layer 1"><path class="cls-1" d="M26.14,22.62V5.71L19.28.1l-6.12,5L6.91,0,0,5.66v17m1.5-1.5V6.37L6.91,1.94l5.41,4.43V21.12Zm23.14,0H13.93V6.42L19.28,2l5.36,4.38Z"/><rect class="cls-2" x="3.1" y="9.55" width="2.51" height="2.51"/><rect class="cls-2" x="3.1" y="14.56" width="2.51" height="2.51"/><rect class="cls-2" x="8.13" y="9.55" width="2.51" height="2.51"/><rect class="cls-2" x="8.13" y="14.56" width="2.51" height="2.51"/><rect class="cls-2" x="15.53" y="9.56" width="2.49" height="2.49"/><rect class="cls-2" x="15.53" y="14.57" width="2.49" height="2.49"/><rect class="cls-2" x="20.51" y="9.56" width="2.49" height="2.49"/><rect class="cls-2" x="20.51" y="14.57" width="2.49" height="2.49"/></g></g></svg>