<svg xmlns="http://www.w3.org/2000/svg" viewBox="0 0 30 26.75"><defs><style>.cls-1{fill:#fb9397;fill-rule:evenodd;}.cls-2{fill:#f23d34;}</style></defs><title>Asset 6</title><g id="Layer_2" data-name="Layer 2"><g id="Layer_1-2" data-name="Layer 1"><path class="cls-1" d="M26.3,20.84V19.61H22.88V18.29h3V17.05h-3V15.77h3.37V14.54H21.5v6.3Zm-5.53,0V19.58H17.63v-5H16.24v6.3Zm-7.7-2.64-.84-2-.84,2Zm2.52,2.64H14.14l-.58-1.41H10.9l-.58,1.41H8.91l2.7-6.34h1.28ZM8.69,19v0c0-1.1-.72-1.56-2-1.89-1.09-.28-1.36-.41-1.36-.83v0c0-.3.28-.54.81-.54a2.92,2.92,0,0,1,1.64.62l.72-1.05a3.66,3.66,0,0,0-2.34-.8A2,2,0,0,0,4,16.35v0c0,1.25.82,1.6,2.09,1.92,1,.27,1.26.45,1.26.81h0c0,.37-.34.6-.9.6a2.91,2.91,0,0,1-1.89-.77l-.81,1a4,4,0,0,0,2.67,1C7.74,20.93,8.69,20.23,8.69,19Z"/><path class="cls-2" d="M27.92,8.91a.78.78,0,0,0-.24-.24L15,0,2.32,8.66a1,1,0,0,0-.22.25A3,3,0,0,0,0,11.75v12a3,3,0,0,0,3,3H27a3,3,0,0,0,3-3v-12A3,3,0,0,0,27.92,8.91ZM15,1.82,25.07,8.7H4.93ZM28.5,23.75a1.5,1.5,0,0,1-1.5,1.5H3a1.5,1.5,0,0,1-1.5-1.5v-12A1.5,1.5,0,0,1,3,10.25H27a1.5,1.5,0,0,1,1.5,1.5Z"/></g></g></svg>