<svg xmlns="http://www.w3.org/2000/svg" viewBox="0 0 26.32 28.72"><defs><style>.cls-1{fill:#f23d34;}</style></defs><title>Asset 12</title><g id="Layer_2" data-name="Layer 2"><g id="Layer_1-2" data-name="Layer 1"><path class="cls-1" d="M22.56,6.36l-.4,1.48.09.1c.21.25.4.51.59.77l0,0-.05.08-4.76,4.75,6.19,6.19A11.93,11.93,0,0,1,22,23.48L5.24,6.73A11.87,11.87,0,0,1,7.75,5L8,4.88l.22-1.5-.46.18a13.17,13.17,0,1,0,14.81,2.8ZM19.9,13.58,23.58,9.9a11.82,11.82,0,0,1,1.1,8.47Zm1.17,10.81a11.92,11.92,0,0,1-1.26,1L3.34,8.91a11.94,11.94,0,0,1,1-1.27ZM1.69,12.52l5.09,5.09L2.89,21.49a11.91,11.91,0,0,1-1.2-9ZM3.62,22.6l5-5L2.15,11.14c.15-.37.32-.73.5-1.09l16,16c-.36.18-.72.35-1.09.5l-6.46-6.45-5,5A11.9,11.9,0,0,1,3.62,22.6Zm3.61,3.24L11.12,22,16.2,27a11.82,11.82,0,0,1-9-1.19Z"/><path class="cls-1" d="M15.07,9.34a3.13,3.13,0,1,0-3.13-3.13A3.13,3.13,0,0,0,15.07,9.34Zm0-5a1.91,1.91,0,1,1-1.91,1.91A1.92,1.92,0,0,1,15.07,4.3Z"/><path class="cls-1" d="M14.89,14.81l.18.18.17-.18,4.22-4.2A6.22,6.22,0,0,0,15.07,0a6.22,6.22,0,0,0-4.39,10.61ZM11.54,2.68a5,5,0,0,1,7.05,7.06L17.14,11.2l-2.07,2.07-2.4-2.4L11.54,9.74A5,5,0,0,1,11.54,2.68Z"/></g></g></svg>