<svg xmlns="http://www.w3.org/2000/svg" viewBox="0 0 46.5 46.5"><defs><style>.cls-1{fill:#fff;}.cls-2{fill:#d8d8d8;}.cls-3,.cls-4{fill:#f23d34;}.cls-4{fill-rule:evenodd;}</style></defs><title>Asset 35</title><g id="Layer_2" data-name="Layer 2"><g id="Layer_1-2" data-name="Layer 1"><circle class="cls-1" cx="23.25" cy="23.25" r="23"/><path class="cls-2" d="M23.25,46.5A23.25,23.25,0,1,1,46.5,23.25,23.28,23.28,0,0,1,23.25,46.5Zm0-46A22.75,22.75,0,1,0,46,23.25,22.78,22.78,0,0,0,23.25.5Z"/><path class="cls-3" d="M18.85,30.68v.7H16.27A11.28,11.28,0,0,1,16,32.74h2.38v.64a7.67,7.67,0,0,1-4.07,5.93L14,38.67a6.58,6.58,0,0,0,2.66-2.43,11.1,11.1,0,0,0-1.75-1.17,6.61,6.61,0,0,1-.75.83l-.34-.67a6.24,6.24,0,0,0,1.79-3.85H14v-.7Zm-1.91,5a8.91,8.91,0,0,0,.74-2.22H15.76a8,8,0,0,1-.54,1.1A13.12,13.12,0,0,1,16.94,35.64Zm3.35-4.56v6.31h-.7V31.08Zm-.23,8.24-.16-.69c.44,0,.87,0,1.27,0s.55-.2.55-.59V30.32h.72v7.94a.92.92,0,0,1-1,1.06Zm7.86-8.2v-.85h.73v.85h3.59v.65H28.65v.95h3v.66h-3v.95h3.94V35H29a7.51,7.51,0,0,0,1,1.71,5.35,5.35,0,0,0,1.62-1.21l.5.48a5.59,5.59,0,0,1-1.72,1.19,6.29,6.29,0,0,0,2.39,1.58l-.38.63A7.21,7.21,0,0,1,28.3,35H28a6.28,6.28,0,0,1-1.35,1.38v2.13a22.57,22.57,0,0,0,2.22-.79l.14.67a22.24,22.24,0,0,1-3.15,1l-.24-.62c.21-.08.32-.2.32-.36V36.84a11.87,11.87,0,0,1-1.82.9l-.38-.62A7.92,7.92,0,0,0,27.19,35H24v-.65h3.94v-.95h-3v-.66h3v-.95H24.33v-.65Z"/><path class="cls-4" d="M15.12,24.62V8.35A1.71,1.71,0,0,1,16.9,6.72H29.6a1.71,1.71,0,0,1,1.78,1.63V24.62a1.71,1.71,0,0,1-1.78,1.63H16.9A1.71,1.71,0,0,1,15.12,24.62ZM29.73,8.81a.47.47,0,0,0-.49-.45h-12a.47.47,0,0,0-.49.45V24.16a.47.47,0,0,0,.49.45h12a.47.47,0,0,0,.49-.45Z"/><rect class="cls-3" x="17.99" y="11.67" width="1.75" height="1.61"/><rect class="cls-3" x="17.99" y="15.68" width="1.75" height="1.61"/><rect class="cls-3" x="17.99" y="19.7" width="1.75" height="1.61"/><rect class="cls-3" x="21.5" y="11.67" width="7.01" height="1.61"/><rect class="cls-3" x="21.5" y="15.68" width="7.01" height="1.61"/><rect class="cls-3" x="21.5" y="19.7" width="7.01" height="1.61"/></g></g></svg>