<svg xmlns="http://www.w3.org/2000/svg" viewBox="0 0 30 21.5"><defs><style>.cls-1{fill:#f23d34;}.cls-1,.cls-2{fill-rule:evenodd;}.cls-2{fill:#fb9397;}</style></defs><title>Asset 13</title><g id="Layer_2" data-name="Layer 2"><g id="Layer_1-2" data-name="Layer 1"><path class="cls-1" d="M29.66,8,15.4.08a.59.59,0,0,0-.6,0L.34,8a.69.69,0,0,0,0,1.19l5.49,3,.07,3.5v.08c0,.18.77,4.41,9.09,4.41s9.13-4,9.16-4.2,0-.07,0-.11V12.13l5.48-3A.67.67,0,0,0,30,8.59.69.69,0,0,0,29.66,8Zm-6.8,5v2.78c-.11.35-1.17,3.1-7.86,3.1s-7.71-3-7.79-3.29l0-2.62,2.72,1.38,4.77,2.58a.51.51,0,0,0,.29.08.63.63,0,0,0,.3-.07l2.86-1.54Zm-4.49.74L15,15.5,8.49,12.08,2,8.58,15.09,1.43,28,8.57Z"/><path class="cls-2" d="M15,6.5a3,3,0,0,0-2.93,1.57L3.88,9.81a.71.71,0,0,0-.51.72l.06,3.79L2.06,19.93a.8.8,0,0,0,.21.77,2.91,2.91,0,0,0,1.87.8A2.17,2.17,0,0,0,6,20.4a.89.89,0,0,0,.11-.66L4.69,14.29h0L4.6,11.12l7.83-1.65a3.42,3.42,0,0,0,2.61,1c1.65,0,3-.9,3-2S16.69,6.5,15,6.5ZM4.79,19.75a1.1,1.1,0,0,1-1.43.06l.71-2.92Z"/></g></g></svg>