<svg xmlns="http://www.w3.org/2000/svg" viewBox="0 0 29.58 28.31"><defs><style>.cls-1{fill:#f23d34;}</style></defs><title>Asset 25</title><g id="Layer_2" data-name="Layer 2"><g id="Layer_1-2" data-name="Layer 1"><path class="cls-1" d="M23.12,28.31l-.35-.17-8-4.19-8,4.19a1.09,1.09,0,0,1-1.47-.46l-.16-.3L5.23,27l1.52-8.88L.33,11.84a1.09,1.09,0,0,1,0-1.54L.6,10l.49,0H9.86L13.79.67A1.09,1.09,0,0,1,15.21.08l.38.16.21.44L19.72,10h8.77a1.09,1.09,0,0,1,1.09,1.09v.43l-.33.35-6.43,6.27,1.6,9.29-.25.4a1.11,1.11,0,0,1-.71.45ZM3.33,12l5.54,5.41L8.8,18,7.51,25.51l7.23-3.8.55.24,6.78,3.56-1.38-8,.39-.44,5.17-5H18.46l-.34-.66L14.79,3.43l-3.58,8.49-.75.05ZM15.63,1.44Z"/></g></g></svg>