<svg xmlns="http://www.w3.org/2000/svg" viewBox="0 0 46 46"><defs><style>.cls-1{fill:#f23d34;}.cls-2{fill:#fff;}</style></defs><title>Asset 33</title><g id="Layer_2" data-name="Layer 2"><g id="Layer_1-2" data-name="Layer 1"><circle class="cls-1" cx="23" cy="23" r="23"/><path class="cls-2" d="M26.39,13a1.84,1.84,0,0,0,.66.12,2,2,0,1,0-1.85-1.23H22.34L18.19,7.73l-.53.62c-.05.06-4.91,5.92.4,11.44l-3.15,2.49a.75.75,0,0,0-.29.59v2.36a.76.76,0,0,0,.75.75h7.85a.76.76,0,0,0,.75-.75V22.59h.11a10,10,0,0,0,5.75-2.08l.62-.53-4.06-4.06Zm.66-2.77a.89.89,0,1,1-.89.89A.89.89,0,0,1,27.05,10.22Zm-2.17,3.16v1l-1-1Zm-2.42,9.15v1.95H16.13V23.23l3-2.39a9,9,0,0,0,1,.66,7.41,7.41,0,0,0,1.13.56C21.76,22.26,22.17,22.42,22.46,22.53Zm5.72-2.68a6.91,6.91,0,0,1-6.51.72c-.18-.08-.37-.17-.55-.27a8.34,8.34,0,0,1-1.85-1.41A6.73,6.73,0,0,1,18.33,10l1.88,1.88h0l6.19,6.18h0Z"/><path class="cls-2" d="M27.94,6.83A.61.61,0,1,0,27.6,8a3.14,3.14,0,0,1,2.56,2.52.61.61,0,0,0,.6.5h.11a.62.62,0,0,0,.5-.71A4.33,4.33,0,0,0,27.94,6.83Z"/><path class="cls-2" d="M14.39,31.41v-.69H21.2v4.67c0,1-.41,1.52-1.22,1.52H18.87l-.2-.68,1.15,0c.44,0,.66-.37.66-1.09V31.41H17.65v6.92h4.53V39H13.61v-.69H17V31.41Zm9.66,6-.48-.56A7.72,7.72,0,0,0,25,34.2l.65.15c-.08.26-.17.5-.26.74h2.5V34.3h.73v.79h3.32v.64H28.62v1h2.95v.62H28.62v1h3.77V39H23.91v-.66h4v-1H25.11v-.62h2.78v-1H25.11A8.41,8.41,0,0,1,24.05,37.44Zm7.26-7V34h-6.5V30.44Zm-.71,1.48v-.86H25.52v.86Zm0,.58H25.52v.87H30.6Z"/></g></g></svg>