<svg xmlns="http://www.w3.org/2000/svg" viewBox="0 0 46.5 46.5"><defs><style>.cls-1{fill:#fff;}.cls-2{fill:#d8d8d8;}.cls-3{fill:#f23d34;}</style></defs><title>Asset 28</title><g id="Layer_2" data-name="Layer 2"><g id="Layer_1-2" data-name="Layer 1"><circle class="cls-1" cx="23.25" cy="23.25" r="23"/><path class="cls-2" d="M23.25,46.5A23.25,23.25,0,1,1,46.5,23.25,23.28,23.28,0,0,1,23.25,46.5Zm0-46A22.75,22.75,0,1,0,46,23.25,22.78,22.78,0,0,0,23.25.5Z"/><path class="cls-3" d="M18.46,39.28a6.43,6.43,0,0,1-1.56-.18,2.19,2.19,0,0,1-1-.73.55.55,0,0,0-.39-.25c-.24,0-.64.45-1.21,1.37L13.71,39a3.79,3.79,0,0,1,1.44-1.53v-3H13.68v-.66h2.14v3.73a1.7,1.7,0,0,1,.24.23,2.33,2.33,0,0,0,.77.63,3.71,3.71,0,0,0,1.35.24l1.95,0,1.44,0c.48,0,.86,0,1.12,0l-.17.72H20.23ZM16.14,32l-.51.5A10.94,10.94,0,0,0,13.91,31l.49-.47A12.39,12.39,0,0,1,16.14,32Zm2-.61a6.36,6.36,0,0,0-.54-.87l.67-.25a6.18,6.18,0,0,1,.61,1.12h1.18a7.94,7.94,0,0,0,.64-1.14l.7.24a5.51,5.51,0,0,1-.55.9h1.7v.67h-2.8a7,7,0,0,1-.26.81h2.38v4.81H17.12V32.91h1.6A5,5,0,0,0,19,32.1h-2.5v-.67Zm3.05,2.91v-.79H17.8v.79Zm0,1.33v-.76H17.8v.76Zm0,.58H17.8v.83h3.38Zm5.95-5.53v3.14h-1v1.6h1v.68h-1V38c.44-.14.87-.28,1.27-.43v.72a30.7,30.7,0,0,1-3.65,1.08l-.2-.7.53-.12V34.92h.64v3.47l.74-.19V33.86H24.05V30.72Zm-.69.66H24.75V33.2h1.69Zm3.27-.95c-.08.25-.17.49-.27.73h2.48v.52a6.53,6.53,0,0,1-1.49,2.22,7,7,0,0,0,2.39,1.24l-.41.59a7,7,0,0,1-2.49-1.37,10.41,10.41,0,0,1-2.42,1.41l-.43-.58a9.48,9.48,0,0,0,2.36-1.32,6.27,6.27,0,0,1-.91-1.27,6.86,6.86,0,0,1-.87.83l-.43-.57A5.16,5.16,0,0,0,29,30.3Zm2.19,9h-.69V39H28.69v.44H28V35.74h3.9Zm-.69-1.1v-2H28.69v2Zm-1.28-4.91a6.41,6.41,0,0,0,1.23-1.64H29.1l-.17.25A5.6,5.6,0,0,0,29.93,33.44Z"/><path class="cls-3" d="M29.48,11.24l-.26,1,.05.06a6.26,6.26,0,0,1,.39.51l0,0,0,.05L26.5,16l4.1,4.1a8.05,8.05,0,0,1-1.5,2.46L18,11.49a7.64,7.64,0,0,1,1.66-1.14l.17-.09.14-1-.3.13a8.72,8.72,0,1,0,9.81,1.85ZM27.71,16l2.45-2.44a7.82,7.82,0,0,1,.95,3.75,8.1,8.1,0,0,1-.22,1.86Zm.78,7.16a7.51,7.51,0,0,1-.83.66L16.74,12.93a10.46,10.46,0,0,1,.65-.84ZM15.65,15.33,19,18.7l-2.58,2.57a7.89,7.89,0,0,1-.79-5.94ZM16.92,22l3.31-3.31L16,14.41a7.79,7.79,0,0,1,.34-.72L26.9,24.3a7.79,7.79,0,0,1-.72.34L21.9,20.36l-3.31,3.31A8,8,0,0,1,16.92,22Zm2.4,2.14,2.58-2.58,3.37,3.37a7.93,7.93,0,0,1-2,.26A7.83,7.83,0,0,1,19.32,24.15Z"/><path class="cls-3" d="M24.52,13.22a2.08,2.08,0,1,0-2.08-2.08A2.08,2.08,0,0,0,24.52,13.22Zm0-3.34a1.27,1.27,0,1,1-1.27,1.26A1.27,1.27,0,0,1,24.52,9.88Z"/><path class="cls-3" d="M24.4,16.85l.12.11.11-.11,2.79-2.79a4.14,4.14,0,0,0,0-5.83,4.12,4.12,0,0,0-5.81,0,4.14,4.14,0,0,0,0,5.83Zm-2.22-8a3.32,3.32,0,0,1,4.67,0,3.33,3.33,0,0,1,0,4.69s-.45.44-1,1l-1.37,1.37-1.59-1.59-.75-.75A3.31,3.31,0,0,1,22.18,8.8Z"/></g></g></svg>