<?xml version="1.0" encoding="UTF-8" standalone="no"?>
<svg width="11px" height="11px" viewBox="0 0 11 11" version="1.1" xmlns="http://www.w3.org/2000/svg" xmlns:xlink="http://www.w3.org/1999/xlink">
    <!-- Generator: Sketch 47.1 (45422) - http://www.bohemiancoding.com/sketch -->
    <title>Page 1</title>
    <desc>Created with Sketch.</desc>
    <defs></defs>
    <g id="Page-1" stroke="none" stroke-width="1" fill="none" fill-rule="evenodd">
        <g id="Map-" transform="translate(-183.000000, -234.000000)">
            <g id="Group-45-Copy-11" transform="translate(128.000000, 231.000000)">
                <g id="Page-1" transform="translate(55.000000, 3.000000)">
                    <path d="M9.0575,10.2794 L1.6345,10.2794 C0.9485,10.2794 0.3915,9.7224 0.3915,9.0364 L0.3915,5.3264 C0.3915,4.8434 0.6665,4.4254 1.0675,4.2194 C1.2375,4.1324 1.4305,4.0834 1.6345,4.0834 L9.0575,4.0834 C9.2925,4.0834 9.5135,4.1484 9.7005,4.2624 C10.0605,4.4804 10.3005,4.8754 10.3005,5.3264 L10.3005,9.0364 C10.3005,9.7224 9.7445,10.2794 9.0575,10.2794 Z" id="Stroke-1" stroke="#FFFFFF" stroke-width="0.783"></path>
                    <polyline id="Stroke-3" stroke="#FFFFFF" stroke-width="0.783" points="1.0677 4.2198 5.3507 0.5168 9.7007 4.2618"></polyline>
                    <path d="M2.8363,7.193 C2.8363,6.841 2.5783,6.547 2.2143,6.547 C1.8503,6.547 1.5983,6.835 1.5983,7.187 L1.5983,7.193 C1.5983,7.545 1.8563,7.839 2.2203,7.839 C2.5843,7.839 2.8363,7.551 2.8363,7.199 L2.8363,7.193 Z M2.2143,8.255 C1.5803,8.255 1.1253,7.783 1.1253,7.199 L1.1253,7.193 C1.1253,6.609 1.5863,6.131 2.2203,6.131 C2.8543,6.131 3.3093,6.603 3.3093,7.187 L3.3093,7.193 C3.3093,7.777 2.8483,8.255 2.2143,8.255 L2.2143,8.255 Z" id="Fill-5" fill="#FFFFFF"></path>
                    <path d="M4.8802,6.8849 C4.8802,6.6819 4.7392,6.5739 4.5132,6.5739 L4.1642,6.5739 L4.1642,7.2019 L4.5222,7.2019 C4.7482,7.2019 4.8802,7.0669 4.8802,6.8909 L4.8802,6.8849 Z M4.5072,7.6039 L4.1642,7.6039 L4.1642,8.2199 L3.7122,8.2199 L3.7122,6.1659 L4.5512,6.1659 C5.0412,6.1659 5.3382,6.4569 5.3382,6.8759 L5.3382,6.8819 C5.3382,7.3579 4.9682,7.6039 4.5072,7.6039 L4.5072,7.6039 Z" id="Fill-7" fill="#FFFFFF"></path>
                    <polygon id="Fill-9" fill="#FFFFFF" points="5.6737 8.2203 5.6737 6.1653 7.2227 6.1653 7.2227 6.5683 6.1227 6.5683 6.1227 6.9843 7.0907 6.9843 7.0907 7.3873 6.1227 7.3873 6.1227 7.8183 7.2377 7.8183 7.2377 8.2203"></polygon>
                    <polygon id="Fill-11" fill="#FFFFFF" points="9.0819 8.2203 8.0869 6.9143 8.0869 8.2203 7.6409 8.2203 7.6409 6.1653 8.0579 6.1653 9.0199 7.4303 9.0199 6.1653 9.4659 6.1653 9.4659 8.2203"></polygon>
                </g>
            </g>
        </g>
    </g>
</svg>