<?xml version="1.0" encoding="UTF-8" standalone="no"?>
<svg width="46px" height="46px" viewBox="0 0 46 46" version="1.1" xmlns="http://www.w3.org/2000/svg" xmlns:xlink="http://www.w3.org/1999/xlink">
    <!-- Generator: Sketch 47.1 (45422) - http://www.bohemiancoding.com/sketch -->
    <title>列表icon</title>
    <desc>Created with Sketch.</desc>
    <defs></defs>
    <g id="Page-1" stroke="none" stroke-width="1" fill="none" fill-rule="evenodd">
        <g id="列表icon">
            <g id="Group-8-Copy">
                <circle id="Oval-2" stroke="#D8D8D8" stroke-width="0.5" fill="#FFFFFF" cx="23" cy="23" r="23"></circle>
                <g id="Group-2" transform="translate(12.000000, 7.000000)">
                    <g id="Group-3" transform="translate(0.000000, 18.000000)" font-size="10" font-family="PingFangSC-Regular, PingFang SC" fill="#666666" font-weight="normal">
                        <text id="列表">
                            <tspan x="1" y="11">列表</tspan>
                        </text>
                    </g>
                    <g id="Group-10" transform="translate(4.000000, 0.000000)" fill="#F23D34">
                        <path d="M13.3307197,1.90450067 C13.3307197,1.67848145 13.1302648,1.49421945 12.8834954,1.49421945 L1.94965897,1.49421945 C1.70288961,1.49421945 1.50171108,1.67848145 1.50171108,1.90450067 L1.50171108,15.9137155 C1.50171108,16.1403975 1.70288961,16.3239967 1.94965897,16.3239967 L12.8834954,16.3239967 C13.1302648,16.3239967 13.3307197,16.1403975 13.3307197,15.9137155 L13.3307197,1.90450067 Z M-5.68434189e-14,16.3302048 L-5.41195804e-14,1.48801135 C-5.41195804e-14,0.667814438 0.728357759,-1.50796725e-16 1.62462115,0 L13.2085763,1.94900574e-15 C14.104073,2.09967347e-15 14.8324307,0.667814438 14.8324307,1.48801135 L14.8324307,16.3302048 C14.8324307,17.1511039 14.104073,17.8182161 13.2085763,17.8182161 L1.62462115,17.8182161 C0.728357759,17.8182161 -5.68434189e-14,17.1511039 -5.68434189e-14,16.3302048 Z" id="Fill-5-Copy-2"></path>
                        <rect id="Rectangle" x="3" y="4" width="1.59997559" height="1.46543816"></rect>
                        <rect id="Rectangle-Copy" x="3" y="8" width="1.59997559" height="1.46543816"></rect>
                        <rect id="Rectangle-Copy-2" x="3" y="12" width="1.59997559" height="1.46543816"></rect>
                        <rect id="Rectangle-14" x="6" y="4" width="6.39990234" height="1.46543816"></rect>
                        <rect id="Rectangle-14-Copy" x="6" y="8" width="6.39990234" height="1.46543816"></rect>
                        <rect id="Rectangle-14-Copy-2" x="6" y="12" width="6.39990234" height="1.46543816"></rect>
                    </g>
                </g>
            </g>
        </g>
    </g>
</svg>