<?xml version="1.0" encoding="UTF-8" standalone="no"?>
<svg width="46px" height="46px" viewBox="0 0 46 46" version="1.1" xmlns="http://www.w3.org/2000/svg" xmlns:xlink="http://www.w3.org/1999/xlink">
    <!-- Generator: Sketch 47.1 (45422) - http://www.bohemiancoding.com/sketch -->
    <title>列表icon copy</title>
    <desc>Created with Sketch.</desc>
    <defs></defs>
    <g id="Page-1" stroke="none" stroke-width="1" fill="none" fill-rule="evenodd">
        <g id="列表icon-copy">
            <circle id="Oval-2" fill="#F23D34" cx="23" cy="23" r="23"></circle>
            <g id="Group-3" transform="translate(12.000000, 25.000000)" font-size="10" font-family="PingFangSC-Regular, PingFang SC" fill="#FFFFFF" font-weight="normal">
                <text id="列表">
                    <tspan x="1" y="11">列表</tspan>
                </text>
            </g>
            <path d="M29.3307197,8.90450067 C29.3307197,8.67848145 29.1302648,8.49421945 28.8834954,8.49421945 L17.949659,8.49421945 C17.7028896,8.49421945 17.5017111,8.67848145 17.5017111,8.90450067 L17.5017111,22.9137155 C17.5017111,23.1403975 17.7028896,23.3239967 17.949659,23.3239967 L28.8834954,23.3239967 C29.1302648,23.3239967 29.3307197,23.1403975 29.3307197,22.9137155 L29.3307197,8.90450067 Z M16,23.3302048 L16,8.48801135 C16,7.66781444 16.7283578,7 17.6246211,7 L29.2085763,7 C30.104073,7 30.8324307,7.66781444 30.8324307,8.48801135 L30.8324307,23.3302048 C30.8324307,24.1511039 30.104073,24.8182161 29.2085763,24.8182161 L17.6246211,24.8182161 C16.7283578,24.8182161 16,24.1511039 16,23.3302048 Z" id="Fill-5-Copy-2" fill="#FFFFFF"></path>
            <rect id="Rectangle" fill="#FFFFFF" x="19" y="11" width="1.59997559" height="1.46543816"></rect>
            <rect id="Rectangle-Copy" fill="#FFFFFF" x="19" y="15" width="1.59997559" height="1.46543816"></rect>
            <rect id="Rectangle-Copy-2" fill="#FFFFFF" x="19" y="19" width="1.59997559" height="1.46543816"></rect>
            <rect id="Rectangle-14" fill="#FFFFFF" x="22" y="11" width="6.39990234" height="1.46543816"></rect>
            <rect id="Rectangle-14-Copy" fill="#FFFFFF" x="22" y="15" width="6.39990234" height="1.46543816"></rect>
            <rect id="Rectangle-14-Copy-2" fill="#FFFFFF" x="22" y="19" width="6.39990234" height="1.46543816"></rect>
        </g>
    </g>
</svg>