<?xml version="1.0" encoding="UTF-8" standalone="no"?>
<svg width="46px" height="46px" viewBox="0 0 46 46" version="1.1" xmlns="http://www.w3.org/2000/svg" xmlns:xlink="http://www.w3.org/1999/xlink">
    <!-- Generator: Sketch 47.1 (45422) - http://www.bohemiancoding.com/sketch -->
    <title>卫星icon</title>
    <desc>Created with Sketch.</desc>
    <defs>
        <polygon id="path-1" points="11.5448963 0.099 18.484 0.099 18.484 21 0 21 0 0.099 11.5448963 0.099 11.5448963 0.0981176734 18.4840411 0.0981176734 18.4840411 7.0378 11.5448963 7.0378"></polygon>
        <polygon id="path-3" points="0 0.16452537 0 6.9997 9.3199 6.9997 9.3199 0.16452537 0 0.16452537"></polygon>
    </defs>
    <g id="Page-1" stroke="none" stroke-width="1" fill="none" fill-rule="evenodd">
        <g id="卫星icon">
            <g id="Group-7">
                <circle id="Oval-2-Copy-2" stroke="#D8D8D8" stroke-width="0.5" fill="#FFFFFF" cx="23" cy="23" r="23"></circle>
                <g id="Group-6" transform="translate(12.000000, 5.000000)">
                    <g id="Page-1" transform="translate(2.000000, 0.000000)">
                        <path d="M3.6953,5.9616 C2.7423,7.4586 1.0183,11.2126 4.6383,14.8336 C8.2773,18.4716 12.0283,16.7436 13.5243,15.7906 L3.6953,5.9616 Z M9.4273,18.5276 C7.6193,18.5276 5.5713,17.8876 3.5783,15.8946 C-1.9737,10.3416 2.9803,4.3806 3.0303,4.3206 L3.5573,3.7016 L15.7833,15.9286 L15.1613,16.4546 C15.1233,16.4866 12.6553,18.5276 9.4273,18.5276 L9.4273,18.5276 Z" id="Fill-1" fill="#F23D34"></path>
                        <path d="M9.1801,9.3366 L10.2321,10.3866 L10.2331,9.3366 L9.1801,9.3366 Z M11.7271,13.9976 L5.5531,7.8366 L11.7351,7.8366 L11.7271,13.9976 Z" id="Fill-3" fill="#F23D34"></path>
                        <path d="M12.1889,6.7839 C11.9159,6.7839 11.6939,7.0059 11.6939,7.2779 C11.6939,7.5519 11.9159,7.7729 12.1889,7.7729 C12.4619,7.7729 12.6839,7.5519 12.6839,7.2779 C12.6839,7.0059 12.4619,6.7839 12.1889,6.7839 M12.1889,9.2729 C11.0889,9.2729 10.1939,8.3789 10.1939,7.2779 C10.1939,6.1789 11.0889,5.2839 12.1889,5.2839 C13.2889,5.2839 14.1839,6.1789 14.1839,7.2779 C14.1839,8.3789 13.2889,9.2729 12.1889,9.2729" id="Fill-5" fill="#F23D34"></path>
                        <g id="Group-9" transform="translate(0.000000, 0.901400)">
                            <mask id="mask-2" fill="white">
                                <use xlink:href="#path-1"></use>
                            </mask>
                            <g id="Clip-8"></g>
                            <path d="M17.7333,7.0378 C17.4043,7.0378 17.1023,6.8198 17.0103,6.4868 C16.3643,4.1408 14.7393,2.5268 12.0413,1.5558 C11.6513,1.4148 11.4493,0.9848 11.5893,0.5958 C11.7293,0.2058 12.1603,0.0018 12.5493,0.1428 C15.6953,1.2768 17.6833,3.2768 18.4573,6.0888 C18.5663,6.4878 18.3323,6.9008 17.9333,7.0108 C17.8663,7.0288 17.7993,7.0378 17.7333,7.0378" id="Fill-7" fill="#F23D34" mask="url(#mask-2)"></path>
                        </g>
                        <path d="M15.5883,8.3181 C15.2313,8.3181 14.9143,8.0611 14.8503,7.6971 C14.5783,6.1421 13.5793,5.1641 11.7053,4.6151 C11.3073,4.4991 11.0803,4.0821 11.1963,3.6841 C11.3133,3.2871 11.7303,3.0601 12.1263,3.1751 C14.5433,3.8821 15.9573,5.3171 16.3283,7.4391 C16.3993,7.8471 16.1263,8.2351 15.7183,8.3071 C15.6743,8.3141 15.6313,8.3181 15.5883,8.3181" id="Fill-10" fill="#F23D34"></path>
                        <g id="Group-14" transform="translate(0.000000, 14.901400)">
                            <mask id="mask-4" fill="white">
                                <use xlink:href="#path-3"></use>
                            </mask>
                            <g id="Clip-13"></g>
                            <path d="M1.4999,5.4997 L7.8199,5.4997 L7.8199,3.5567 C7.0559,3.2787 5.6199,2.6947 4.5209,1.8777 L1.4999,4.2597 L1.4999,5.4997 Z M8.5699,6.9997 L0.7499,6.9997 C0.3359,6.9997 -0.0001,6.6637 -0.0001,6.2497 L-0.0001,3.8957 C-0.0001,3.6667 0.1049,3.4497 0.2859,3.3077 L4.0649,0.3257 C4.3539,0.0977 4.7669,0.1127 5.0389,0.3637 C6.2889,1.5187 8.7669,2.2967 8.7919,2.3037 C9.1049,2.4007 9.3199,2.6917 9.3199,3.0207 L9.3199,6.2497 C9.3199,6.6637 8.9839,6.9997 8.5699,6.9997 L8.5699,6.9997 Z" id="Fill-12" fill="#F23D34" mask="url(#mask-4)"></path>
                        </g>
                    </g>
                    <text id="卫星" font-family="PingFangSC-Regular, PingFang SC" font-size="10" font-weight="normal" fill="#666666">
                        <tspan x="1" y="33">卫星</tspan>
                    </text>
                </g>
            </g>
        </g>
    </g>
</svg>