<?xml version="1.0" encoding="UTF-8" standalone="no"?>
<svg width="46px" height="46px" viewBox="0 0 46 46" version="1.1" xmlns="http://www.w3.org/2000/svg" xmlns:xlink="http://www.w3.org/1999/xlink">
    <!-- Generator: Sketch 47.1 (45422) - http://www.bohemiancoding.com/sketch -->
    <title>卫星icon copy</title>
    <desc>Created with Sketch.</desc>
    <defs></defs>
    <g id="Page-1" stroke="none" stroke-width="1" fill="none" fill-rule="evenodd">
        <g id="卫星icon-copy">
            <circle id="Oval-2-Copy-2" fill="#F23D34" cx="23" cy="23" r="23"></circle>
            <path d="M17.6953,10.9616 C16.7423,12.4586 15.0183,16.2126 18.6383,19.8336 C22.2773,23.4716 26.0283,21.7436 27.5243,20.7906 L17.6953,10.9616 Z M23.4273,23.5276 C21.6193,23.5276 19.5713,22.8876 17.5783,20.8946 C12.0263,15.3416 16.9803,9.3806 17.0303,9.3206 L17.5573,8.7016 L29.7833,20.9286 L29.1613,21.4546 C29.1233,21.4866 26.6553,23.5276 23.4273,23.5276 L23.4273,23.5276 Z" id="Fill-1" fill="#FFFFFF"></path>
            <path d="M23.1801,14.3366 L24.2321,15.3866 L24.2331,14.3366 L23.1801,14.3366 Z M25.7271,18.9976 L19.5531,12.8366 L25.7351,12.8366 L25.7271,18.9976 Z" id="Fill-3" fill="#FFFFFF"></path>
            <path d="M26.1889,11.7839 C25.9159,11.7839 25.6939,12.0059 25.6939,12.2779 C25.6939,12.5519 25.9159,12.7729 26.1889,12.7729 C26.4619,12.7729 26.6839,12.5519 26.6839,12.2779 C26.6839,12.0059 26.4619,11.7839 26.1889,11.7839 M26.1889,14.2729 C25.0889,14.2729 24.1939,13.3789 24.1939,12.2779 C24.1939,11.1789 25.0889,10.2839 26.1889,10.2839 C27.2889,10.2839 28.1839,11.1789 28.1839,12.2779 C28.1839,13.3789 27.2889,14.2729 26.1889,14.2729" id="Fill-5" fill="#FFFFFF"></path>
            <path d="M31.7333,12.9392 C31.4043,12.9392 31.1023,12.7212 31.0103,12.3882 C30.3643,10.0422 28.7393,8.4282 26.0413,7.4572 C25.6513,7.3162 25.4493,6.8862 25.5893,6.4972 C25.7293,6.1072 26.1603,5.9032 26.5493,6.0442 C29.6953,7.1782 31.6833,9.1782 32.4573,11.9902 C32.5663,12.3892 32.3323,12.8022 31.9333,12.9122 C31.8663,12.9302 31.7993,12.9392 31.7333,12.9392" id="Fill-7" fill="#FFFFFF"></path>
            <path d="M29.5883,13.3181 C29.2313,13.3181 28.9143,13.0611 28.8503,12.6971 C28.5783,11.1421 27.5793,10.1641 25.7053,9.6151 C25.3073,9.4991 25.0803,9.0821 25.1963,8.6841 C25.3133,8.2871 25.7303,8.0601 26.1263,8.1751 C28.5433,8.8821 29.9573,10.3171 30.3283,12.4391 C30.3993,12.8471 30.1263,13.2351 29.7183,13.3071 C29.6743,13.3141 29.6313,13.3181 29.5883,13.3181" id="Fill-10" fill="#FFFFFF"></path>
            <text id="卫星" font-family="PingFangSC-Regular, PingFang SC" font-size="10" font-weight="normal" fill="#FFFFFF">
                <tspan x="13" y="38">卫星</tspan>
            </text>
            <path d="M15.4999,25.4011 L21.8199,25.4011 L21.8199,23.4581 C21.0559,23.1801 19.6199,22.5961 18.5209,21.7791 L15.4999,24.1611 L15.4999,25.4011 Z M22.5699,26.9011 L14.7499,26.9011 C14.3359,26.9011 13.9999,26.5651 13.9999,26.1511 L13.9999,23.7971 C13.9999,23.5681 14.1049,23.3511 14.2859,23.2091 L18.0649,20.2271 C18.3539,19.9991 18.7669,20.0141 19.0389,20.2651 C20.2889,21.4201 22.7669,22.1981 22.7919,22.2051 C23.1049,22.3021 23.3199,22.5931 23.3199,22.9221 L23.3199,26.1511 C23.3199,26.5651 22.9839,26.9011 22.5699,26.9011 L22.5699,26.9011 Z" id="Fill-12" fill="#FFFFFF"></path>
        </g>
    </g>
</svg>