<?xml version="1.0" encoding="UTF-8" standalone="no"?>
<svg width="48px" height="48px" viewBox="0 0 48 48" version="1.1" xmlns="http://www.w3.org/2000/svg" xmlns:xlink="http://www.w3.org/1999/xlink">
    <!-- Generator: Sketch 47.1 (45422) - http://www.bohemiancoding.com/sketch -->
    <title>Group 8</title>
    <desc>Created with Sketch.</desc>
    <defs></defs>
    <g id="Page-1" stroke="none" stroke-width="1" fill="none" fill-rule="evenodd">
        <g id="街景icon" transform="translate(1.000000, 1.000000)">
            <g id="Group-8">
                <circle id="Oval-2" stroke="#D8D8D8" stroke-width="0.5" fill="#FFFFFF" cx="23" cy="23" r="23"></circle>
                <g id="Group-3" transform="translate(12.000000, 6.000000)">
                    <text id="街景" font-family="PingFangSC-Regular, PingFang SC" font-size="10" font-weight="normal" fill="#666666">
                        <tspan x="1" y="31">街景</tspan>
                    </text>
                    <g id="Page-1" transform="translate(3.000000, 0.000000)" fill="#F23D34">
                        <path d="M7.8213,20.0503 C3.9763,20.0503 0.0003,18.7033 0.0003,16.4513 C0.0003,15.7613 0.3823,14.7713 2.2013,13.9813 C2.5993,13.8083 3.0593,13.9903 3.2323,14.3873 C3.4043,14.7843 3.2233,15.2453 2.8263,15.4183 C1.9563,15.7963 1.5673,16.2093 1.5673,16.4513 C1.5673,17.1493 4.0033,18.4823 7.8213,18.4823 C11.5963,18.4823 13.9063,17.1673 13.9063,16.4513 C13.9063,16.2133 13.5273,15.8063 12.6803,15.4333 C12.2843,15.2593 12.1053,14.7963 12.2793,14.4003 C12.4543,14.0043 12.9173,13.8223 13.3123,13.9993 C15.0983,14.7853 15.4733,15.7673 15.4733,16.4513 C15.4733,18.7033 11.5833,20.0503 7.8213,20.0503" id="Fill-1"></path>
                        <g id="Group-5" transform="translate(0.000000, 0.050300)">
                            <path d="M7.7002,5.6182 C6.3682,5.6182 5.2852,6.7012 5.2852,8.0332 C5.2852,9.3652 6.3682,10.4482 7.7002,10.4482 C9.0322,10.4482 10.1152,9.3652 10.1152,8.0332 C10.1152,6.7012 9.0322,5.6182 7.7002,5.6182 L7.7002,5.6182 Z M7.7002,11.9482 C5.5412,11.9482 3.7852,10.1922 3.7852,8.0332 C3.7852,5.8742 5.5412,4.1182 7.7002,4.1182 C9.8592,4.1182 11.6152,5.8742 11.6152,8.0332 C11.6152,10.1922 9.8592,11.9482 7.7002,11.9482 L7.7002,11.9482 Z M7.7232,2.4502 C6.3332,2.4502 4.9442,2.9642 3.8612,3.9932 C2.8042,4.9962 2.2132,6.3762 2.1952,7.8782 C2.1752,9.4782 2.8162,11.0472 3.9522,12.1802 L7.7232,15.7192 L11.5112,12.1642 C12.6312,11.0472 13.2712,9.4782 13.2522,7.8782 C13.2332,6.3762 12.6422,4.9962 11.5862,3.9932 C10.5032,2.9642 9.1132,2.4502 7.7232,2.4502 L7.7232,2.4502 Z M7.7232,17.7752 L2.9092,13.2582 C1.4712,11.8242 0.6702,9.8622 0.6952,7.8592 C0.7182,5.9492 1.4762,4.1892 2.8272,2.9052 C5.5732,0.2972 9.8732,0.2992 12.6192,2.9052 C13.9712,4.1892 14.7282,5.9492 14.7522,7.8592 C14.7762,9.8622 13.9752,11.8242 12.5542,13.2422 L7.7232,17.7752 Z" id="Fill-3"></path>
                        </g>
                    </g>
                </g>
            </g>
        </g>
    </g>
</svg>