<?xml version="1.0" encoding="UTF-8" standalone="no"?>
<svg width="46px" height="46px" viewBox="0 0 46 46" version="1.1" xmlns="http://www.w3.org/2000/svg" xmlns:xlink="http://www.w3.org/1999/xlink">
    <!-- Generator: Sketch 47.1 (45422) - http://www.bohemiancoding.com/sketch -->
    <title>街景icon copy</title>
    <desc>Created with Sketch.</desc>
    <defs></defs>
    <g id="Page-1" stroke="none" stroke-width="1" fill="none" fill-rule="evenodd">
        <g id="街景icon-copy">
            <circle id="Oval-2" fill="#F23D34" cx="23" cy="23" r="23"></circle>
            <text id="街景" font-family="PingFangSC-Regular, PingFang SC" font-size="10" font-weight="normal" fill="#FFFFFF">
                <tspan x="13" y="37">街景</tspan>
            </text>
            <path d="M22.8213,26.0503 C18.9763,26.0503 15.0003,24.7033 15.0003,22.4513 C15.0003,21.7613 15.3823,20.7713 17.2013,19.9813 C17.5993,19.8083 18.0593,19.9903 18.2323,20.3873 C18.4043,20.7843 18.2233,21.2453 17.8263,21.4183 C16.9563,21.7963 16.5673,22.2093 16.5673,22.4513 C16.5673,23.1493 19.0033,24.4823 22.8213,24.4823 C26.5963,24.4823 28.9063,23.1673 28.9063,22.4513 C28.9063,22.2133 28.5273,21.8063 27.6803,21.4333 C27.2843,21.2593 27.1053,20.7963 27.2793,20.4003 C27.4543,20.0043 27.9173,19.8223 28.3123,19.9993 C30.0983,20.7853 30.4733,21.7673 30.4733,22.4513 C30.4733,24.7033 26.5833,26.0503 22.8213,26.0503" id="Fill-1" fill="#FFFFFF"></path>
            <g id="Group-5" transform="translate(15.000000, 6.050300)" fill="#FFFFFF">
                <path d="M7.7002,5.6182 C6.3682,5.6182 5.2852,6.7012 5.2852,8.0332 C5.2852,9.3652 6.3682,10.4482 7.7002,10.4482 C9.0322,10.4482 10.1152,9.3652 10.1152,8.0332 C10.1152,6.7012 9.0322,5.6182 7.7002,5.6182 L7.7002,5.6182 Z M7.7002,11.9482 C5.5412,11.9482 3.7852,10.1922 3.7852,8.0332 C3.7852,5.8742 5.5412,4.1182 7.7002,4.1182 C9.8592,4.1182 11.6152,5.8742 11.6152,8.0332 C11.6152,10.1922 9.8592,11.9482 7.7002,11.9482 L7.7002,11.9482 Z M7.7232,2.4502 C6.3332,2.4502 4.9442,2.9642 3.8612,3.9932 C2.8042,4.9962 2.2132,6.3762 2.1952,7.8782 C2.1752,9.4782 2.8162,11.0472 3.9522,12.1802 L7.7232,15.7192 L11.5112,12.1642 C12.6312,11.0472 13.2712,9.4782 13.2522,7.8782 C13.2332,6.3762 12.6422,4.9962 11.5862,3.9932 C10.5032,2.9642 9.1132,2.4502 7.7232,2.4502 L7.7232,2.4502 Z M7.7232,17.7752 L2.9092,13.2582 C1.4712,11.8242 0.6702,9.8622 0.6952,7.8592 C0.7182,5.9492 1.4762,4.1892 2.8272,2.9052 C5.5732,0.2972 9.8732,0.2992 12.6192,2.9052 C13.9712,4.1892 14.7282,5.9492 14.7522,7.8592 C14.7762,9.8622 13.9752,11.8242 12.5542,13.2422 L7.7232,17.7752 Z" id="Fill-3"></path>
            </g>
        </g>
    </g>
</svg>