<?xml version="1.0" encoding="UTF-8" standalone="no"?>
<svg width="46px" height="46px" viewBox="0 0 46 46" version="1.1" xmlns="http://www.w3.org/2000/svg" xmlns:xlink="http://www.w3.org/1999/xlink">
    <!-- Generator: Sketch 47.1 (45422) - http://www.bohemiancoding.com/sketch -->
    <title>道路icon copy</title>
    <desc>Created with Sketch.</desc>
    <defs></defs>
    <g id="Page-1" stroke="none" stroke-width="1" fill="none" fill-rule="evenodd">
        <g id="道路icon-copy">
            <g id="Group">
                <circle id="Oval-2-Copy" fill="#F23D34" cx="23" cy="23" r="23"></circle>
                <g id="Group-4" transform="translate(12.000000, 26.000000)" font-size="10" font-family="PingFangSC-Regular, PingFang SC" fill="#FFFFFF" font-weight="normal">
                    <text id="道路">
                        <tspan x="1" y="11">道路</tspan>
                    </text>
                </g>
                <g id="Group-2" transform="translate(14.500000, 4.000000)" stroke="#FFFFFF" stroke-width="0.2" fill="#FFFFFF">
                    <path d="M10,3.53986346 C10.7250708,3.53986346 11.3150523,4.13861386 11.3150523,4.875 C11.3150523,5.6120848 10.7250708,6.2108352 10,6.2108352 C9.27424,6.2108352 8.68494769,5.6120848 8.68494769,4.875 C8.68494769,4.1379152 9.27424,3.53986346 10,3.53986346 M10,7.0625 C11.1875446,7.0625 12.1538462,6.08158336 12.1538462,4.875 C12.1538462,3.66981396 11.1875446,2.6875 10,2.6875 C8.81176615,2.6875 7.84615385,3.66981396 7.84615385,4.875 C7.84615385,6.0808847 8.81176615,7.0625 10,7.0625" id="Fill-4"></path>
                    <path d="M9.99959674,1.62632163 C10.8597181,1.62632163 11.6675741,1.97252935 12.2747565,2.60224051 C13.5291271,3.90101978 13.5291271,6.01362067 12.2741113,7.31306701 C12.2592705,7.32840955 11.8392112,7.76333717 11.3339786,8.28565056 L9.99959674,9.66581199 L8.45163635,8.06418434 C8.04706313,7.64660046 7.73863251,7.32707541 7.72572746,7.31306701 C6.47071164,6.01295361 6.47071164,3.90101978 7.72508221,2.60224051 C8.33161942,1.97252935 9.13947536,1.62632163 9.99959674,1.62632163 Z M9.99959674,10.8125 L10.1131612,10.6957633 C10.1131612,10.6957633 12.7954752,7.92276616 12.8303188,7.88741161 C14.3898937,6.2711085 14.3898937,3.64286489 12.8303188,2.02722884 C12.0734378,1.24409229 11.0687799,0.8125 9.99959674,0.8125 C8.93105885,0.8125 7.92640094,1.24409229 7.16951993,2.02722884 C5.609945,3.64286489 5.609945,6.27177557 7.17081044,7.88874575 C7.20371831,7.92276616 9.88667758,10.6957633 9.88667758,10.6957633 L9.99959674,10.8125 Z" id="Fill-6"></path>
                    <path d="M4.67212554,17.9878057 L7.18227069,15.5351036 L10.4649669,18.7426775 C9.83710768,18.9055178 9.17953492,18.9938807 8.5,18.9938807 C7.10604909,18.9938807 5.79930086,18.6265434 4.67212554,17.9878057 L4.67212554,17.9878057 Z M2.33509385,15.9466223 L5.56094688,12.7939596 L1.38749145,8.71664201 C1.48373737,8.48058679 1.5916103,8.2508432 1.71175621,8.02741124 L12.0565772,18.1348669 C11.8279125,18.2522633 11.5934342,18.3582988 11.3531423,18.4529734 L7.18227069,14.3781805 L3.95641766,17.530212 C3.33824759,17.0839793 2.79113154,16.5500148 2.33509385,15.9466223 L2.33509385,15.9466223 Z M1.09229425,9.58512327 L4.37628239,12.7939596 L1.86613724,15.2466617 C1.21373205,14.1452811 0.83714568,12.8684369 0.83714568,11.5057544 C0.83714568,10.8468195 0.9249943,10.2017702 1.09229425,9.58512327 L1.09229425,9.58512327 Z M13.6107227,17.07893 C13.3542822,17.3036243 13.082985,17.5119083 12.797477,17.7018886 L2.15552094,7.30346647 C2.34865871,7.02512327 2.56052892,6.75814103 2.79113154,6.50756903 L13.6107227,17.07893 Z M12.8517365,10.254788 L15.2320465,7.92831854 C15.8385896,9.01455128 16.1622084,10.2371154 16.1622084,11.5057544 C16.1622084,12.1160897 16.0853408,12.7087525 15.9438787,13.2761686 L12.8517365,10.254788 Z M14.3167414,6.63190828 C14.3167414,6.63190828 14.3535603,6.67482742 14.3722927,6.69628698 C14.5060035,6.85218442 14.6326089,7.0125 14.7521088,7.17723373 C14.7564151,7.18354536 14.7523241,7.20858153 14.7398359,7.25234221 L11.667072,10.254788 L15.6635383,14.1597978 C15.3250627,15.0289103 14.8270385,15.8197584 14.2030549,16.5001529 L3.38346379,5.92879191 C3.86727715,5.50528107 4.41051752,5.13857495 5.00414165,4.84192801 C5.0571092,4.81541913 5.16369025,4.76366371 5.16369025,4.76366371 L5.30515237,3.8125 C5.30515237,3.8125 5.06873623,3.90528107 5.00866327,3.93115878 C1.95915343,5.27301282 0,8.22559665 0,11.5057544 C0,16.0861095 3.81301771,19.8125 8.5,19.8125 C13.1869823,19.8125 17,16.0861095 17,11.5057544 C17,9.32003452 16.1376624,7.25549803 14.57189,5.69399901 L14.3167414,6.63190828 Z" id="Fill-1"></path>
                </g>
            </g>
        </g>
    </g>
</svg>