<?xml version="1.0" encoding="UTF-8" standalone="no"?>
<svg width="46px" height="46px" viewBox="0 0 46 46" version="1.1" xmlns="http://www.w3.org/2000/svg" xmlns:xlink="http://www.w3.org/1999/xlink">
    <!-- Generator: Sketch 47.1 (45422) - http://www.bohemiancoding.com/sketch -->
    <title>道路icon</title>
    <desc>Created with Sketch.</desc>
    <defs></defs>
    <g id="Page-1" stroke="none" stroke-width="1" fill="none" fill-rule="evenodd">
        <g id="道路icon">
            <circle id="Oval-2-Copy" stroke="#D8D8D8" stroke-width="0.5" fill="#FFFFFF" cx="23" cy="23" r="23"></circle>
            <g id="Group-2" transform="translate(12.000000, 7.000000)">
                <g id="Group" transform="translate(2.500000, 0.000000)" stroke="#F23D34" stroke-width="0.2" fill="#F23D34">
                    <path d="M10,2.72736346 C10.7250708,2.72736346 11.3150523,3.32611386 11.3150523,4.0625 C11.3150523,4.7995848 10.7250708,5.3983352 10,5.3983352 C9.27424,5.3983352 8.68494769,4.7995848 8.68494769,4.0625 C8.68494769,3.3254152 9.27424,2.72736346 10,2.72736346 M10,6.25 C11.1875446,6.25 12.1538462,5.26908336 12.1538462,4.0625 C12.1538462,2.85731396 11.1875446,1.875 10,1.875 C8.81176615,1.875 7.84615385,2.85731396 7.84615385,4.0625 C7.84615385,5.2683847 8.81176615,6.25 10,6.25" id="Fill-4"></path>
                    <path d="M9.99959674,0.813821626 C10.8597181,0.813821626 11.6675741,1.16002935 12.2747565,1.78974051 C13.5291271,3.08851978 13.5291271,5.20112067 12.2741113,6.50056701 C12.2592705,6.51590955 11.8392112,6.95083717 11.3339786,7.47315056 L9.99959674,8.85331199 L8.45163635,7.25168434 C8.04706313,6.83410046 7.73863251,6.51457541 7.72572746,6.50056701 C6.47071164,5.20045361 6.47071164,3.08851978 7.72508221,1.78974051 C8.33161942,1.16002935 9.13947536,0.813821626 9.99959674,0.813821626 Z M9.99959674,10 L10.1131612,9.88326329 C10.1131612,9.88326329 12.7954752,7.11026616 12.8303188,7.07491161 C14.3898937,5.4586085 14.3898937,2.83036489 12.8303188,1.21472884 C12.0734378,0.431592289 11.0687799,0 9.99959674,0 C8.93105885,0 7.92640094,0.431592289 7.16951993,1.21472884 C5.609945,2.83036489 5.609945,5.45927557 7.17081044,7.07624575 C7.20371831,7.11026616 9.88667758,9.88326329 9.88667758,9.88326329 L9.99959674,10 Z" id="Fill-6"></path>
                    <path d="M4.67212554,17.1753057 L7.18227069,14.7226036 L10.4649669,17.9301775 C9.83710768,18.0930178 9.17953492,18.1813807 8.5,18.1813807 C7.10604909,18.1813807 5.79930086,17.8140434 4.67212554,17.1753057 L4.67212554,17.1753057 Z M2.33509385,15.1341223 L5.56094688,11.9814596 L1.38749145,7.90414201 C1.48373737,7.66808679 1.5916103,7.4383432 1.71175621,7.21491124 L12.0565772,17.3223669 C11.8279125,17.4397633 11.5934342,17.5457988 11.3531423,17.6404734 L7.18227069,13.5656805 L3.95641766,16.717712 C3.33824759,16.2714793 2.79113154,15.7375148 2.33509385,15.1341223 L2.33509385,15.1341223 Z M1.09229425,8.77262327 L4.37628239,11.9814596 L1.86613724,14.4341617 C1.21373205,13.3327811 0.83714568,12.0559369 0.83714568,10.6932544 C0.83714568,10.0343195 0.9249943,9.38927022 1.09229425,8.77262327 L1.09229425,8.77262327 Z M13.6107227,16.26643 C13.3542822,16.4911243 13.082985,16.6994083 12.797477,16.8893886 L2.15552094,6.49096647 C2.34865871,6.21262327 2.56052892,5.94564103 2.79113154,5.69506903 L13.6107227,16.26643 Z M12.8517365,9.44228797 L15.2320465,7.11581854 C15.8385896,8.20205128 16.1622084,9.42461538 16.1622084,10.6932544 C16.1622084,11.3035897 16.0853408,11.8962525 15.9438787,12.4636686 L12.8517365,9.44228797 Z M14.57189,4.88149901 L14.3167414,5.81940828 C14.3167414,5.81940828 14.3535603,5.86232742 14.3722927,5.88378698 C14.5060035,6.03968442 14.6326089,6.2 14.7521088,6.36473373 C14.7585683,6.37420118 14.7714872,6.3912426 14.7714872,6.3912426 L14.7398359,6.43984221 L11.667072,9.44228797 L15.6635383,13.3472978 C15.3250627,14.2164103 14.8270385,15.0072584 14.2030549,15.6876529 L3.38346379,5.11629191 C3.86727715,4.69278107 4.41051752,4.32607495 5.00414165,4.02942801 C5.0571092,4.00291913 5.16369025,3.95116371 5.16369025,3.95116371 L5.30515237,3 C5.30515237,3 5.06873623,3.09278107 5.00866327,3.11865878 C1.95915343,4.46051282 0,7.41309665 0,10.6932544 C0,15.2736095 3.81301771,19 8.5,19 C13.1869823,19 17,15.2736095 17,10.6932544 C17,8.50753452 16.1376624,6.44299803 14.57189,4.88149901 L14.57189,4.88149901 Z" id="Fill-1"></path>
                </g>
                <text id="道路" font-family="PingFangSC-Regular, PingFang SC" font-size="10" font-weight="normal" fill="#666666">
                    <tspan x="1" y="30">道路</tspan>
                </text>
            </g>
        </g>
    </g>
</svg>