<?xml version="1.0" encoding="UTF-8" standalone="no"?>
<svg width="28px" height="51px" viewBox="0 0 28 51" version="1.1" xmlns="http://www.w3.org/2000/svg" xmlns:xlink="http://www.w3.org/1999/xlink">
    <!-- Generator: Sketch 47.1 (45422) - http://www.bohemiancoding.com/sketch -->
    <title>Group 31</title>
    <desc>Created with Sketch.</desc>
    <defs>
        <polygon id="path-1" points="0.0006 26 26.3186 26 26.3186 0.6509 0.0006 0.6509"></polygon>
        <polygon id="path-3" points="0.869699922 0.275 13.26795 0.275 13.26795 15.2655 0.869699922 15.2655 0.869699922 0.275"></polygon>
    </defs>
    <g id="Page-1" stroke="none" stroke-width="1" fill="none" fill-rule="evenodd">
        <g id="School-list-detail" transform="translate(-323.000000, -513.000000)">
            <g id="Group-11-Copy" transform="translate(-3.000000, 504.000000)">
                <g id="Group-33">
                    <g id="Group-32" transform="translate(10.000000, 8.000000)">
                        <g id="Group-31" transform="translate(316.000000, 0.000000)">
                            <g id="Page-1" transform="translate(1.000000, 0.000000)">
                                <g id="Group-3" transform="translate(0.000000, 3.724700)">
                                    <mask id="mask-2" fill="white">
                                        <use xlink:href="#path-1"></use>
                                    </mask>
                                    <g id="Clip-2"></g>
                                    <path d="M7.2336,23.1099 L11.1196,19.2239 L16.2016,24.3059 C15.2296,24.5639 14.2116,24.7039 13.1596,24.7039 C11.0016,24.7039 8.9786,24.1219 7.2336,23.1099 L7.2336,23.1099 Z M3.6156,19.8759 L8.6096,14.8809 L2.1486,8.4209 C2.2976,8.0469 2.4646,7.6829 2.6506,7.3289 L18.6656,23.3429 C18.3116,23.5289 17.9486,23.6969 17.5766,23.8469 L11.1196,17.3909 L6.1256,22.3849 C5.1686,21.6779 4.3216,20.8319 3.6156,19.8759 L3.6156,19.8759 Z M1.6916,9.7969 L6.7756,14.8809 L2.8896,18.7669 C1.8796,17.0219 1.2966,14.9989 1.2966,12.8399 C1.2966,11.7959 1.4326,10.7739 1.6916,9.7969 L1.6916,9.7969 Z M21.0716,21.6699 C20.6746,22.0259 20.2546,22.3559 19.8126,22.6569 L3.3376,6.1819 C3.6366,5.7409 3.9646,5.3179 4.3216,4.9209 L21.0716,21.6699 Z M19.8966,10.8579 L23.5816,7.1719 C24.5206,8.8929 25.0216,10.8299 25.0216,12.8399 C25.0216,13.8069 24.9026,14.7459 24.6836,15.6449 L19.8966,10.8579 Z M22.5596,3.6319 L22.1646,5.1179 C22.1646,5.1179 22.2216,5.1859 22.2506,5.2199 C22.4576,5.4669 22.6536,5.7209 22.8386,5.9819 C22.8486,5.9969 22.8686,6.0239 22.8686,6.0239 L22.8196,6.1009 L18.0626,10.8579 L24.2496,17.0449 C23.7256,18.4219 22.9546,19.6749 21.9886,20.7529 L5.2386,4.0039 C5.9876,3.3329 6.8286,2.7519 7.7476,2.2819 C7.8296,2.2399 7.9946,2.1579 7.9946,2.1579 L8.2136,0.6509 C8.2136,0.6509 7.8476,0.7979 7.7546,0.8389 C3.0336,2.9649 0.0006,7.6429 0.0006,12.8399 C0.0006,20.0969 5.9036,26.0009 13.1596,26.0009 C20.4156,26.0009 26.3186,20.0969 26.3186,12.8399 C26.3186,9.3769 24.9836,6.1059 22.5596,3.6319 L22.5596,3.6319 Z" id="Fill-1" fill="#EC2024" mask="url(#mask-2)"></path>
                                </g>
                                <path d="M15.0685,5.3014 C16.1205,5.3014 16.9765,6.1584 16.9765,7.2124 C16.9765,8.2674 16.1205,9.1244 15.0685,9.1244 C14.0155,9.1244 13.1605,8.2674 13.1605,7.2124 C13.1605,6.1574 14.0155,5.3014 15.0685,5.3014 M15.0685,10.3434 C16.7915,10.3434 18.1935,8.9394 18.1935,7.2124 C18.1935,5.4874 16.7915,4.0814 15.0685,4.0814 C13.3445,4.0814 11.9435,5.4874 11.9435,7.2124 C11.9435,8.9384 13.3445,10.3434 15.0685,10.3434" id="Fill-4" fill="#EC2024"></path>
                                <g id="Group-8" transform="translate(8.000000, 0.724700)">
                                    <mask id="mask-4" fill="white">
                                        <use xlink:href="#path-3"></use>
                                    </mask>
                                    <g id="Clip-7"></g>
                                    <path d="M3.5432,2.9575 C4.4832,2.0135 5.7352,1.4945 7.0682,1.4945 C8.4012,1.4945 9.6532,2.0135 10.5942,2.9575 C12.5382,4.9045 12.5382,8.0715 10.5932,10.0195 C10.5702,10.0425 9.9192,10.6945 9.1362,11.4775 L7.0682,13.5465 L4.6692,11.1455 C4.0422,10.5195 3.5642,10.0405 3.5442,10.0195 C1.5992,8.0705 1.5992,4.9045 3.5432,2.9575 M6.8932,15.0905 L7.0682,15.2655 L7.2442,15.0905 C7.2442,15.0905 11.4012,10.9335 11.4552,10.8805 C13.8722,8.4575 13.8722,4.5175 11.4552,2.0955 C10.2822,0.9215 8.7252,0.2745 7.0682,0.2745 C5.4122,0.2745 3.8552,0.9215 2.6822,2.0955 C0.2652,4.5175 0.2652,8.4585 2.6842,10.8825 C2.7352,10.9335 6.8932,15.0905 6.8932,15.0905" id="Fill-6" fill="#EC2024" mask="url(#mask-4)"></path>
                                </g>
                            </g>
                            <text id="地图" font-family="PingFangSC-Regular, PingFang SC" font-size="14" font-weight="normal" line-spacing="20" fill="#666666">
                                <tspan x="0" y="50">地图</tspan>
                            </text>
                        </g>
                    </g>
                </g>
            </g>
        </g>
    </g>
</svg>