<svg xmlns="http://www.w3.org/2000/svg" viewBox="0 0 822.42 306.01"><defs><style>.cls-1{fill:#fff;}.cls-2{fill:#ed1c24;}</style></defs><title>Asset 2</title><g id="Layer_2" data-name="Layer 2"><g id="Layer_1-2" data-name="Layer 1"><polygon class="cls-1" points="180.77 221.9 180.77 222.85 180.86 221.96 180.86 221.9 180.77 221.9"/><path class="cls-2" d="M306,153A153,153,0,1,0,153,306H306Z"/><path class="cls-1" d="M264.09,83.15H180.77l-.26,41.65a13.89,13.89,0,0,1,13.9-13.89l83.51,0V97a13.83,13.83,0,0,0-13.83-13.83"/><path class="cls-1" d="M139.11,83.2,125.22,111h.08a13.83,13.83,0,0,1,13.78,13.83l0-.06v97H166.9V83.19H139.11Z"/><path class="cls-1" d="M111.4,83.19H56l-14,.07A13.83,13.83,0,0,0,28.18,97.09V207.9A13.83,13.83,0,0,0,42,221.73H56V111H69.65a13.84,13.84,0,0,1,13.78,13.83l.26-.51v97.43h27.78V110.83L125.3,83.19Z"/><path class="cls-1" d="M194.64,166.38l83.24,0V138.63l-83.24,0a13.89,13.89,0,0,0-13.9,13.89v27.72a13.9,13.9,0,0,1,13.9-13.9"/><path class="cls-1" d="M180.74,208.07l.12,13.83h83.23a13.83,13.83,0,0,0,13.83-13.83v-13.9H194.64a13.9,13.9,0,0,0-13.9,13.9"/><path class="cls-2" d="M792.62,105C773.91,105,762,117.67,762,135.22,762,153.7,773.79,166,793.67,166c8.78,0,18.72-3,24.8-9.36l-9.12-9C806.07,151,799.17,153,793.91,153c-10.06,0-16.26-5.15-17.2-12.29h45C824,117,811.92,105,792.62,105ZM777,128.9c2.1-7.49,8.42-11.23,16.14-11.23,8.19,0,14,3.74,15,11.23Z"/><path class="cls-2" d="M712.38,164.46V133.58c0-7.6,4.8-14.27,12.52-14.27s10.88,6.43,10.88,14v31.11h14.27V133.35C750.05,116,742,106,725.6,106c-7.48,0-14.15,2.34-19.3,10.52-3.28-8-10.18-10.76-17.08-10.76-5.49,0-12.16,2.11-15.2,8l-1.06-7H659.75v57.78H674V133.58c0-7.6,4.56-14.51,12.28-14.51s11.81,6.91,11.81,14.51v30.88Z"/><path class="cls-2" d="M619.74,105.62c-18.36,0-29.82,13.57-29.82,30.06s11.23,30.07,29.94,30.07,30.06-13.46,30.06-30.07S638.11,105.62,619.74,105.62Zm.12,47c-10.41,0-15.67-8.19-15.67-17s5.38-17.07,15.67-17.07c9.59,0,15.68,8.42,15.68,17.07S630.27,152.65,619.86,152.65Z"/><path class="cls-2" d="M524.65,82.58v81.88h14.27V135c0-8.65,5.85-15.79,14.27-15.79,7.6,0,13.1,4.45,13.1,15v30.3h14.27V134.05c0-17-7.25-28.07-23.63-28.07-6.55,0-12.86,2-18,8.65v-32Z"/><polygon class="cls-2" points="513.77 149.25 467.81 149.25 467.81 130.77 512.13 130.77 512.13 116.39 467.81 116.39 467.81 97.55 513.77 97.55 513.77 82.58 452.48 82.58 452.48 164.46 513.77 164.46 513.77 149.25"/><polygon class="cls-2" points="422.77 164.58 438.21 164.58 438.21 82.7 420.55 82.7 394.93 117.91 369.32 82.7 351.54 82.7 351.54 164.58 366.98 164.58 366.98 105.04 393.06 140.71 396.1 140.71 422.77 105.16 422.77 164.58"/><path class="cls-2" d="M808,101.25V89.64c0-2.86,1.8-5.37,4.71-5.37s4.09,2.42,4.09,5.28v11.7h5.37V89.55c0-6.51-3-10.29-9.2-10.29a7.86,7.86,0,0,0-7.26,4,6.49,6.49,0,0,0-6.42-4c-2.07,0-4.57.79-5.72,3l-.39-2.64h-5v21.73h5.36V89.64c0-2.86,1.72-5.46,4.62-5.46s4.44,2.6,4.44,5.46v11.61Z"/><path class="cls-2" d="M773.16,79.12c-6.91,0-11.22,5.11-11.22,11.31s4.23,11.31,11.26,11.31,11.31-5.06,11.31-11.31A11,11,0,0,0,773.16,79.12Zm0,17.69c-3.91,0-5.89-3.08-5.89-6.38s2-6.42,5.89-6.42c3.61,0,5.9,3.17,5.9,6.42S777.12,96.81,773.2,96.81Z"/><path class="cls-2" d="M756.53,95a6.52,6.52,0,0,1-4.75,1.81,5.91,5.91,0,0,1-6.16-6.34A6.1,6.1,0,0,1,751.87,84a6.59,6.59,0,0,1,4.35,1.71l3.39-3.56A10.29,10.29,0,0,0,751.78,79c-6.29,0-11.52,3.78-11.52,11.48s5.23,11.48,11.52,11.48a11.14,11.14,0,0,0,8.36-3.43Z"/><path class="cls-2" d="M731.67,98.07c0,4.18,6.33,4.18,6.33,0s-6.33-4.18-6.33,0"/><path class="cls-2" d="M375.29,285.61l-8.89,11.86h-1l-8.7-11.9v19.85h-5.14v-27.3h5.92L366,289.86l8.54-11.74h5.89v27.3h-5.15Z"/><path class="cls-2" d="M408.09,305.38H387.65v-27.3h20.44v5H392.76v6.28h14.78v4.8H392.76v6.16h15.33Z"/><path class="cls-2" d="M423.18,282.76h-8.66v-4.68H437v4.68h-8.66v22.62h-5.15Z"/><path class="cls-2" d="M466.78,305.38h-6.12l-8-9.12h-4.95v9.12H442.6V278c4.33,0,8.66,0,13,0,6.43,0,9.83,4.33,9.83,9.05,0,3.74-1.72,7.53-6.91,8.58l8.27,9.32Zm-19-22.5v8.74h7.84c3.27,0,4.68-2.19,4.68-4.37s-1.45-4.37-4.68-4.37Z"/><path class="cls-2" d="M498.18,291.89c-.08,7.06-4.41,14.12-14,14.12s-14-6.91-14-14.08,4.61-14.39,14-14.39S498.25,284.75,498.18,291.89Zm-23,.12c.12,4.48,2.54,9.28,9,9.28s8.86-4.84,8.94-9.32-2.5-9.75-8.94-9.75S475.09,287.4,475.2,292Z"/><path class="cls-2" d="M545.44,305.38H525v-27.3h20.43v5H530.12v6.28H544.9v4.8H530.12v6.16h15.32Z"/><path class="cls-2" d="M575.9,291.5c.12,6.9-4.09,13.88-13.65,13.88H551.53v-27.3h10.72C571.61,278.08,575.78,284.75,575.9,291.5Zm-19.27,8.93h5.62c6.2,0,8.66-4.52,8.54-9-.11-4.25-2.61-8.5-8.54-8.5h-5.62Z"/><path class="cls-2" d="M602,284.75a10.47,10.47,0,0,0-6.94-2.73c-5.85,0-9.4,4.45-9.4,10.06,0,4.49,2.61,9.13,9.4,9.13a9.1,9.1,0,0,0,6.16-2.18v-4.84h-7v-4.6H606v11.5A13.6,13.6,0,0,1,595.09,306c-10.26,0-14.43-6.75-14.43-13.93,0-7.68,4.79-14.78,14.43-14.78a14.47,14.47,0,0,1,10.14,4.17Z"/><path class="cls-2" d="M633,305.38H612.56v-27.3H633v5H617.67v6.28h14.78v4.8H617.67v6.16H633Z"/><path class="cls-2" d="M684.32,305.38H678.2l-8-9.12h-5v9.12h-5.15V278c4.33,0,8.66,0,13,0,6.43,0,9.82,4.33,9.82,9.05,0,3.74-1.71,7.53-6.9,8.58l8.27,9.32Zm-19-22.5v8.74h7.84c3.27,0,4.68-2.19,4.68-4.37s-1.45-4.37-4.68-4.37Z"/><path class="cls-2" d="M709.24,305.38H688.8v-27.3h20.44v5H693.91v6.28h14.78v4.8H693.91v6.16h15.33Z"/><path class="cls-2" d="M735.06,300.23H720.78l-2.34,5.15h-5.57l12.24-27.3h5.62L743,305.38h-5.62Zm-7.14-16.42-5.07,11.63H733Z"/><path class="cls-2" d="M753.31,278.08v22.54h14v4.76H748.16v-27.3Z"/><path class="cls-2" d="M776.44,282.76h-8.66v-4.68h22.46v4.68h-8.66v22.62h-5.14Z"/><path class="cls-2" d="M809,289.35l7.26-11.27h6.2v.24l-10.88,15.79v11.27h-5.15V294.11L795.9,278.32v-.24H802Z"/><path class="cls-2" d="M690.06,248.43c-12.25-.76-21.26-3.51-26.82-8.17h26.29V230.4h-32c.23-1.12.42-2.27.59-3.45l0-.19H690.3v-9.87H658.15V214h26.63v-9.87H658.15v-2.87h30.77v-9.86H671.23l5.56-6.25-13.22-2.66-.27.42c-2.1,3.17-4.07,6-5.86,8.49h-11c-1.68-3-3.33-5.83-4.91-8.39l-.27-.45L628.73,185l.56.92a61.46,61.46,0,0,1,2.91,5.46H615.44v9.86h30.31v2.87h-25.7V214h25.7v2.87h-32v9.87h31.69c-.15,1.24-.36,2.46-.62,3.64h-30v9.86h25.25c-4.75,4.69-13.62,7.69-26.41,8.94l-1,.1.42.95a93.57,93.57,0,0,1,3.81,9.66l.18.59.61-.06c16.92-1.72,28.45-7,34.31-15.7,7,9,18,14.38,32.76,15.85l.54.06.22-.5a90.31,90.31,0,0,1,5.16-10.57l.69-1.07Z"/><path class="cls-2" d="M381.08,246.85l1.93,3.21h13.81a10.77,10.77,0,0,0,1.28-1.6,18.1,18.1,0,0,1,1.29-1.61Zm27.62-10.92H370.81v2.89H408.7ZM366,219.56h47.2V226H366Zm-14.45,5.14V209.28H428V224.7H416.08v-7.39H363.42v7.39Zm6.1-25h25.69V197.4H351.54v-9h31.79v-4.49h12.84v4.49H428v9H396.17v2.25h25.69v7.71H357.64Zm71,50.41v8.35H350.9v-8.35h18.94a3.61,3.61,0,0,1-.64-1,15.9,15.9,0,0,0-1.6-2.25h-8.67V228.23h61.65v18.62h-8a16.81,16.81,0,0,1-2.57,3.21Z"/><path class="cls-2" d="M531.86,244.6h10.27V232.08H531.86ZM520,258.41V221.48h33.71v36.61H542.13v-3.21H531.86v3.53Zm-18-53h31.78v-8.35H502Zm-8.67,39.17h9.95V232.08h-9.95Zm-4.82-58.76h58.76v30.51H488.51Zm-6.74,72.57V221.48h33.07v36.93H503.28v-3.53h-9.95v3.53Z"/><path class="cls-2" d="M762.12,204.26h44.31v-4.17H762.12ZM749.6,189.17h27.29a30.88,30.88,0,0,0-1.93-5.46l16.06-1c.42,1.92,1,4.07,1.6,6.42h26v24.72H762.12V219h20.23a25.84,25.84,0,0,0-1-3.85l14.13-.64A13.74,13.74,0,0,1,796.8,219h24.72v10.28H784.59v3.85h31.15q-.32,7.71-1,13.81,0,12.19-11.88,11.88H787.81a87.22,87.22,0,0,0-2.89-10.28q5.77.33,12.2.32,4.82,0,5.13-3.21v-1a5.16,5.16,0,0,0,.33-1.61H782.67q-1.93,8.35-14.77,17.66c-.64-.64-1.61-1.6-2.89-2.89-2.79-3-4.93-5.13-6.42-6.42q14.45-9.32,13.48-22.15H761.8q-1,18.3-7.71,30.82a28.38,28.38,0,0,1-3.53-2.25c-3.21-1.92-5.57-3.42-7.06-4.49q6.4-12.84,6.1-37.25Z"/></g></g></svg>